<svg width="92" height="93" viewBox="0 0 92 93" fill="none" xmlns="http://www.w3.org/2000/svg">
<circle cx="43.5" cy="43.5" r="40" stroke="black" stroke-width="7"/>
<rect x="74.7906" y="68" width="24.3099" height="11" rx="4" transform="rotate(45.0916 74.7906 68)" fill="black"/>
<path d="M44.512 30C47.7973 30 50.952 30.8213 53.976 32.464V46.408C53.976 48.6853 54.2 50.2907 54.648 51.224C55.096 52.12 55.8427 52.568 56.888 52.568C58.456 52.568 59.6693 51.6347 60.528 49.768C61.424 47.9013 61.872 44.8213 61.872 40.528C61.872 35.4133 60.3973 31.4373 57.448 28.6C54.536 25.7253 50.2053 24.288 44.456 24.288C40.4987 24.288 37.064 25.1467 34.152 26.864C31.2773 28.544 29.0747 30.9147 27.544 33.976C26.0507 37 25.304 40.4907 25.304 44.448C25.304 48.48 26.032 51.9893 27.488 54.976C28.9813 57.9627 31.1653 60.2587 34.04 61.864C36.9147 63.5067 40.4053 64.328 44.512 64.328C46.3787 64.328 48.264 64.1413 50.168 63.768C52.1093 63.3947 53.864 62.928 55.432 62.368L57.392 67.968C53.2107 69.536 48.8987 70.32 44.456 70.32C39.192 70.32 34.544 69.256 30.512 67.128C26.5173 65.0373 23.4187 62.032 21.216 58.112C19.0507 54.2293 17.968 49.6933 17.968 44.504C17.968 39.5387 19.088 35.0773 21.328 31.12C23.6053 27.1253 26.76 24.008 30.792 21.768C34.824 19.4907 39.3787 18.352 44.456 18.352C49.5333 18.352 53.9387 19.3787 57.672 21.432C61.4053 23.448 64.2427 26.136 66.184 29.496C68.1627 32.856 69.152 36.496 69.152 40.416C69.152 43.7387 68.6667 46.7067 67.696 49.32C66.7253 51.9333 65.344 53.9867 63.552 55.48C61.76 56.9733 59.632 57.72 57.168 57.72C55.1147 57.72 53.4533 57.16 52.184 56.04C50.952 54.8827 50.168 53.5387 49.832 52.008C49.0853 53.6507 48.04 54.976 46.696 55.984C45.352 56.992 43.7093 57.496 41.768 57.496C38.4827 57.496 35.9813 56.3573 34.264 54.08C32.5467 51.8027 31.688 48.7787 31.688 45.008C31.688 40.3413 32.8267 36.6827 35.104 34.032C37.3813 31.344 40.5173 30 44.512 30ZM42.776 52.4C44.792 52.4 46.2667 51.28 47.2 49.04V35.712C46.192 35.3013 45.2213 35.096 44.288 35.096C42.5333 35.096 41.1893 35.88 40.256 37.448C39.36 39.016 38.912 41.536 38.912 45.008C38.912 47.6213 39.2107 49.5067 39.808 50.664C40.4427 51.8213 41.432 52.4 42.776 52.4Z" fill="black"/>
</svg>
