<svg width="16819" height="7422" viewBox="0 0 16819 7422" fill="none" xmlns="http://www.w3.org/2000/svg">
<rect y="811" width="353" height="132" rx="21" fill="#9B0000" fill-opacity="0.25"/>
<rect x="4109" y="2224" width="268" height="42" rx="21" fill="#FFCBCB" fill-opacity="0.25"/>
<rect x="7294" y="3497" width="481" height="154" rx="21" fill="#6CD0A0" fill-opacity="0.25"/>
<rect x="9954" y="4359" width="334" height="125" rx="21" fill="#FF000F" fill-opacity="0.25"/>
<rect x="15733" y="6297" width="1086" height="125" rx="21" fill="#00B35D" fill-opacity="0.25"/>
<rect x="187" y="1080" width="166" height="253" rx="21" fill="#139A41" fill-opacity="0.25"/>
<rect x="2037" y="2646" width="613" height="158" rx="21" fill="#9900BF" fill-opacity="0.25"/>
<rect x="9453" y="1318" width="395" height="90" rx="21" fill="#00B2FF" fill-opacity="0.25"/>
<rect x="7202" y="3295" width="184" height="80" rx="21" fill="#FA00FF" fill-opacity="0.25"/>
<rect x="1043" y="5171" width="540" height="187" rx="21" fill="#F5BCFE" fill-opacity="0.25"/>
<rect x="9581" y="1478" width="908" height="174" rx="21" fill="#18FF2F" fill-opacity="0.25"/>
<rect x="15577" y="6024" width="467" height="174" rx="21" fill="#18FF2F" fill-opacity="0.25"/>
<rect x="3184" y="3651" width="171" height="74" rx="21" fill="#F1FF51" fill-opacity="0.25"/>
<rect x="8027" y="7348" width="171" height="74" rx="21" fill="#F1FF51" fill-opacity="0.25"/>
<rect x="1480" y="5064" width="296" height="88" rx="21" fill="#CA6AE2" fill-opacity="0.25"/>
<rect x="13487" width="126" height="564" rx="21" fill="#6A007B" fill-opacity="0.5"/>
</svg>
