<svg width="828" height="792" viewBox="0 0 828 792" fill="none" xmlns="http://www.w3.org/2000/svg">
<ellipse cx="414" cy="367" rx="414" ry="367" fill="#EDEDED"/>
<path d="M170.938 597.406L222.685 639.846L142.531 735.229C134.359 744.954 119.772 746.307 109.95 738.252L89.131 721.178C81.8714 715.224 80.8829 704.571 86.9232 697.383L170.938 597.406Z" fill="#656A72"/>
<ellipse cx="357.809" cy="413.095" rx="276.137" ry="270.516" transform="rotate(4.66953 357.809 413.095)" fill="#CACACA"/>
<ellipse cx="352.021" cy="406.277" rx="269.813" ry="264.192" transform="rotate(4.66953 352.021 406.277)" fill="#F4F5F5"/>
<path d="M163.017 599.534L173.341 608.247C180.726 614.964 188.656 621.073 197.05 626.512L198.386 627.377L213.462 635.549L134.729 729.298C126.516 739.078 111.827 740.387 102.012 732.215L81.842 715.42C74.4803 709.29 73.7068 698.352 80.1322 691.243L163.017 599.534Z" fill="#C5D5ED"/>
<path d="M219.675 643.466L213.462 635.549L141.133 721.834L148.833 727.486L219.675 643.466Z" fill="#656A72"/>
<mask id="mask0_2_104" style="mask-type:alpha" maskUnits="userSpaceOnUse" x="0" y="0" width="828" height="734">
<ellipse cx="414" cy="367" rx="414" ry="367" fill="#D9D9D9"/>
</mask>
<g mask="url(#mask0_2_104)">
<rect x="69" y="96" width="440" height="47" rx="23.5" fill="#370997" fill-opacity="0.1"/>
<rect x="297" y="179" width="556" height="47" rx="23.5" fill="#370997" fill-opacity="0.1"/>
<rect x="55" y="321" width="294" height="47" rx="23.5" fill="#099720" fill-opacity="0.1"/>
<rect x="656" y="370" width="343" height="47" rx="23.5" fill="#970909" fill-opacity="0.1"/>
<rect x="475" y="538" width="343" height="47" rx="23.5" fill="#0BACF1" fill-opacity="0.1"/>
</g>
<rect x="201.806" y="320.031" width="26.0463" height="5.88143" rx="2.94072" transform="rotate(15.9401 201.806 320.031)" fill="#180D5A"/>
<rect x="199.492" y="358.401" width="26.0464" height="5.88143" rx="2.94072" transform="rotate(-15.9341 199.492 358.401)" fill="#180D5A"/>
<rect x="321.084" y="326.745" width="26.0464" height="5.88143" rx="2.94072" transform="rotate(-15.9341 321.084 326.745)" fill="#180D5A"/>
<rect x="316.161" y="348.684" width="26.0463" height="5.88143" rx="2.94072" transform="rotate(15.9401 316.161 348.684)" fill="#180D5A"/>
<rect x="222.197" y="389.811" width="26.0464" height="5.88143" rx="2.94072" transform="rotate(-44.6064 222.197 389.811)" fill="#180D5A"/>
<rect x="301.266" y="304.768" width="26.0464" height="5.88143" rx="2.94072" transform="rotate(-44.6064 301.266 304.768)" fill="#180D5A"/>
<ellipse cx="260.615" cy="295.514" rx="22.6855" ry="16.384" transform="rotate(-15.9341 260.615 295.514)" fill="#383A63"/>
<ellipse cx="272.955" cy="340.267" rx="53.353" ry="51.4625" transform="rotate(-15.9341 272.955 340.267)" fill="#6258A0"/>
<rect x="255.595" y="291.705" width="6.30154" height="102.925" transform="rotate(-15.9341 255.595 291.705)" fill="black"/>
<circle cx="251.866" cy="321.706" r="3.79758" transform="rotate(-29.7183 251.866 321.706)" fill="#7A824C"/>
<circle cx="280.152" cy="313.289" r="3.52632" transform="rotate(-29.7183 280.152 313.289)" fill="#7A824C"/>
<circle cx="262.257" cy="365.225" r="3.52632" transform="rotate(-29.7183 262.257 365.225)" fill="#7A824C"/>
<circle cx="294.079" cy="356.14" r="3.52632" transform="rotate(-29.7183 294.079 356.14)" fill="#7A824C"/>
<circle cx="246.198" cy="345.327" r="3.79758" transform="rotate(-29.7183 246.198 345.327)" fill="#7A824C"/>
<circle cx="298.886" cy="330.285" r="3.79758" transform="rotate(-29.7183 298.886 330.285)" fill="#7A824C"/>
<rect x="290.84" y="480.447" width="13.1377" height="2.96657" rx="1.48329" transform="rotate(50.7356 290.84 480.447)" fill="#180D5A"/>
<rect x="278.837" y="495.674" width="13.1377" height="2.96657" rx="1.48329" transform="rotate(18.8614 278.837 495.674)" fill="#180D5A"/>
<rect x="338.313" y="517.56" width="13.1377" height="2.96657" rx="1.48329" transform="rotate(18.8614 338.313 517.56)" fill="#180D5A"/>
<rect x="329.958" y="525.23" width="13.1377" height="2.96657" rx="1.48329" transform="rotate(50.7356 329.958 525.23)" fill="#180D5A"/>
<rect x="279.2" y="515.22" width="13.1377" height="2.96657" rx="1.48329" transform="rotate(-9.81088 279.2 515.22)" fill="#180D5A"/>
<rect x="336.43" y="502.753" width="13.1377" height="2.96657" rx="1.48329" transform="rotate(-9.81088 336.43 502.753)" fill="#180D5A"/>
<ellipse cx="322.255" cy="487.219" rx="11.4425" ry="8.26402" transform="rotate(18.8614 322.255 487.219)" fill="#383A63"/>
<ellipse cx="314.485" cy="509.308" rx="26.911" ry="25.9575" transform="rotate(18.8614 314.485 509.308)" fill="#6258A0"/>
<rect x="321.273" y="484.196" width="3.17847" height="51.915" transform="rotate(18.8614 321.273 484.196)" fill="black"/>
<circle cx="311.093" cy="495.55" r="1.91548" transform="rotate(5.07725 311.093 495.55)" fill="#7A824C"/>
<circle cx="325.231" cy="500.205" r="1.77866" transform="rotate(5.07725 325.231 500.205)" fill="#7A824C"/>
<circle cx="302.87" cy="516.567" r="1.77866" transform="rotate(5.07725 302.87 516.567)" fill="#7A824C"/>
<circle cx="318.666" cy="521.963" r="1.77866" transform="rotate(5.07725 318.666 521.963)" fill="#7A824C"/>
<circle cx="301.946" cy="503.702" r="1.91548" transform="rotate(5.07725 301.946 503.702)" fill="#7A824C"/>
<circle cx="328.099" cy="512.637" r="1.91548" transform="rotate(5.07725 328.099 512.637)" fill="#7A824C"/>
<rect x="449.653" y="368.598" width="19.9525" height="4.5054" rx="2.2527" transform="rotate(54.4753 449.653 368.598)" fill="#180D5A"/>
<rect x="429.954" y="390.485" width="19.9525" height="4.50541" rx="2.2527" transform="rotate(22.6011 429.954 390.485)" fill="#180D5A"/>
<rect x="517.922" y="429.545" width="19.9525" height="4.50541" rx="2.2527" transform="rotate(22.6011 517.922 429.545)" fill="#180D5A"/>
<rect x="504.501" y="440.341" width="19.9525" height="4.5054" rx="2.2527" transform="rotate(54.4753 504.501 440.341)" fill="#180D5A"/>
<rect x="428.569" y="420.142" width="19.9525" height="4.50541" rx="2.2527" transform="rotate(-6.07121 428.569 420.142)" fill="#180D5A"/>
<rect x="516.534" y="406.918" width="19.9525" height="4.50541" rx="2.2527" transform="rotate(-6.07121 516.534 406.918)" fill="#180D5A"/>
<ellipse cx="496.592" cy="381.973" rx="17.378" ry="12.5508" transform="rotate(22.6011 496.592 381.973)" fill="#383A63"/>
<ellipse cx="482.629" cy="414.678" rx="40.8705" ry="39.4223" transform="rotate(22.6011 482.629 414.678)" fill="#6258A0"/>
<rect x="495.402" y="377.294" width="4.82722" height="78.8446" transform="rotate(22.6011 495.402 377.294)" fill="black"/>
<circle cx="478.85" cy="393.491" r="2.90909" transform="rotate(8.81691 478.85 393.491)" fill="#7A824C"/>
<circle cx="499.816" cy="401.947" r="2.7013" transform="rotate(8.81691 499.816 401.947)" fill="#7A824C"/>
<circle cx="464.307" cy="424.528" r="2.7013" transform="rotate(8.81691 464.307 424.528)" fill="#7A824C"/>
<circle cx="487.711" cy="434.271" r="2.7013" transform="rotate(8.81691 487.711 434.271)" fill="#7A824C"/>
<circle cx="464.18" cy="404.941" r="2.90909" transform="rotate(8.81691 464.18 404.941)" fill="#7A824C"/>
<circle cx="502.931" cy="421.072" r="2.90909" transform="rotate(8.81691 502.931 421.072)" fill="#7A824C"/>
</svg>
