<svg width="274" height="89" viewBox="0 0 274 89" fill="none" xmlns="http://www.w3.org/2000/svg">
<path d="M32.4688 22.5625H39.5625V61.1562C39.5625 62.8438 39.3646 64.3542 38.9688 65.6875C38.5938 67.0208 37.9792 68.1875 37.125 69.1875C36.2917 70.1875 35.2083 71.0312 33.875 71.7188C32.5625 72.4062 30.9792 72.9583 29.125 73.375C28.7292 72.7708 28.3854 72.1562 28.0938 71.5312C27.8021 70.9271 27.5521 70.375 27.3438 69.875C27.1146 69.2917 26.9167 68.7292 26.75 68.1875C27.6667 68 28.4792 67.7188 29.1875 67.3438C29.8958 66.9688 30.4896 66.4479 30.9688 65.7812C31.4688 65.1354 31.8438 64.3125 32.0938 63.3125C32.3438 62.3125 32.4688 61.0833 32.4688 59.625V22.5625ZM48.6562 63.4688C48.6979 62.9896 48.7708 62.4479 48.875 61.8438C48.9792 61.3438 49.1146 60.75 49.2812 60.0625C49.4688 59.3542 49.7396 58.5938 50.0938 57.7812C51.2188 58.1562 52.3646 58.4896 53.5312 58.7812C54.5312 59.0312 55.625 59.2604 56.8125 59.4688C58 59.6771 59.1354 59.7812 60.2188 59.7812C61.8646 59.7812 63.2396 59.6562 64.3438 59.4062C65.4688 59.1562 66.3646 58.7917 67.0312 58.3125C67.7188 57.8125 68.2083 57.1979 68.5 56.4688C68.7917 55.7188 68.9375 54.8542 68.9375 53.875C68.9375 52.7708 68.7812 51.8333 68.4688 51.0625C68.1771 50.2917 67.7188 49.625 67.0938 49.0625C66.4896 48.5 65.7083 48.0208 64.75 47.625C63.7917 47.2292 62.6562 46.8438 61.3438 46.4688C59.0521 45.8438 57.1146 45.1667 55.5312 44.4375C53.9479 43.6875 52.6562 42.8333 51.6562 41.875C50.6771 40.9167 49.9688 39.8333 49.5312 38.625C49.0938 37.3958 48.875 36 48.875 34.4375C48.875 32.1875 49.2188 30.2604 49.9062 28.6562C50.6146 27.0521 51.6042 25.7396 52.875 24.7188C54.1667 23.6979 55.7188 22.9479 57.5312 22.4688C59.3646 21.9896 61.4062 21.75 63.6562 21.75C65.3854 21.75 66.8958 21.8854 68.1875 22.1562C69.5 22.4271 70.6042 22.7188 71.5 23.0312C72.5417 23.4062 73.4479 23.8333 74.2188 24.3125C74.1562 24.7917 74.0312 25.3125 73.8438 25.875C73.6771 26.3542 73.4479 26.9167 73.1562 27.5625C72.8646 28.2083 72.4583 28.9062 71.9375 29.6562C71.3125 29.2396 70.5833 28.8646 69.75 28.5312C69.0208 28.2396 68.1354 27.9792 67.0938 27.75C66.0729 27.5 64.8854 27.375 63.5312 27.375C62.0521 27.375 60.8021 27.4896 59.7812 27.7188C58.7812 27.9479 57.9583 28.3125 57.3125 28.8125C56.6667 29.2917 56.1979 29.9062 55.9062 30.6562C55.6354 31.3854 55.5 32.2604 55.5 33.2812C55.5 34.4271 55.6458 35.3854 55.9375 36.1562C56.2292 36.9062 56.6979 37.5521 57.3438 38.0938C57.9896 38.6146 58.8229 39.0729 59.8438 39.4688C60.8854 39.8646 62.1354 40.2708 63.5938 40.6875C65.7812 41.2917 67.6458 41.9375 69.1875 42.625C70.7292 43.3125 71.9792 44.1146 72.9375 45.0312C73.9167 45.9479 74.625 47.0417 75.0625 48.3125C75.5208 49.5625 75.75 51.0729 75.75 52.8438C75.75 55.0312 75.4688 56.9375 74.9062 58.5625C74.3438 60.1667 73.4479 61.5104 72.2188 62.5938C70.9896 63.6771 69.4062 64.4792 67.4688 65C65.5312 65.5417 63.1979 65.8125 60.4688 65.8125C58.8438 65.8125 57.3125 65.6875 55.875 65.4375C54.4375 65.2083 53.1875 64.9479 52.125 64.6562C50.8542 64.3021 49.6979 63.9062 48.6562 63.4688ZM89.9688 77.6562H83.2812V37.2188L80.8125 34.6875V32.7188H86.5312L89 34.875L90.1562 34.9375C90.2812 34.8125 90.5521 34.6042 90.9688 34.3125C91.4062 34 91.9792 33.6875 92.6875 33.375C93.3958 33.0417 94.2396 32.7604 95.2188 32.5312C96.1979 32.2812 97.2917 32.1562 98.5 32.1562C100.042 32.1562 101.542 32.4062 103 32.9062C104.479 33.4062 105.781 34.2708 106.906 35.5C108.052 36.7292 108.969 38.3958 109.656 40.5C110.344 42.5833 110.688 45.2188 110.688 48.4062C110.688 51.1562 110.26 53.6042 109.406 55.75C108.573 57.8958 107.448 59.6979 106.031 61.1562C104.615 62.6146 102.958 63.7292 101.062 64.5C99.1875 65.25 97.2083 65.625 95.125 65.625C94.5833 65.625 94 65.6042 93.375 65.5625C92.7708 65.5208 92.2188 65.4688 91.7188 65.4062C91.1146 65.3438 90.5312 65.2708 89.9688 65.1875V77.6562ZM89.9688 60.375C90.3229 60.4792 90.8021 60.5729 91.4062 60.6562C92.0104 60.7396 92.6771 60.7812 93.4062 60.7812C94.9688 60.7812 96.3854 60.4896 97.6562 59.9062C98.9271 59.3021 100 58.4688 100.875 57.4062C101.771 56.3229 102.458 55.0208 102.938 53.5C103.438 51.9792 103.688 50.2812 103.688 48.4062C103.688 46.0938 103.479 44.2188 103.062 42.7812C102.667 41.3229 102.083 40.1875 101.312 39.375C100.562 38.5417 99.6458 37.9792 98.5625 37.6875C97.4792 37.3958 96.2708 37.25 94.9375 37.25C94.3542 37.25 93.7708 37.3438 93.1875 37.5312C92.6042 37.6979 92.0729 37.8958 91.5938 38.125C91.0312 38.375 90.4896 38.6562 89.9688 38.9688V60.375ZM115.594 49.3438C115.594 46.3438 115.958 43.7604 116.688 41.5938C117.417 39.4271 118.438 37.6458 119.75 36.25C121.062 34.8542 122.625 33.8333 124.438 33.1875C126.271 32.5208 128.281 32.1875 130.469 32.1875C132.49 32.1875 134.292 32.5312 135.875 33.2188C137.479 33.8854 138.833 34.8333 139.938 36.0625C141.042 37.2917 141.885 38.7604 142.469 40.4688C143.052 42.1771 143.344 44.0625 143.344 46.125C143.344 46.8333 143.312 47.4896 143.25 48.0938C143.188 48.6979 143.115 49.2188 143.031 49.6562C142.948 50.1771 142.854 50.6458 142.75 51.0625L122.25 50.9688C122.271 52.8229 122.469 54.3646 122.844 55.5938C123.219 56.8021 123.771 57.7604 124.5 58.4688C125.25 59.1771 126.188 59.6771 127.312 59.9688C128.438 60.2396 129.771 60.375 131.312 60.375C132.625 60.375 133.802 60.2917 134.844 60.125C135.885 59.9583 136.771 59.7604 137.5 59.5312C138.333 59.2812 139.083 58.9896 139.75 58.6562C140.062 59.3854 140.302 60.0625 140.469 60.6875C140.656 61.3125 140.792 61.8542 140.875 62.3125C140.958 62.8542 141.021 63.3333 141.062 63.75C140.375 64.1042 139.542 64.4167 138.562 64.6875C137.729 64.9167 136.708 65.125 135.5 65.3125C134.292 65.5208 132.896 65.625 131.312 65.625C128.812 65.625 126.583 65.3438 124.625 64.7812C122.688 64.2188 121.042 63.3021 119.688 62.0312C118.354 60.7396 117.333 59.0625 116.625 57C115.938 54.9167 115.594 52.3646 115.594 49.3438ZM136.656 46.4062V45.3438C136.656 44.0312 136.49 42.875 136.156 41.875C135.844 40.8542 135.406 40 134.844 39.3125C134.281 38.625 133.615 38.1042 132.844 37.75C132.073 37.3958 131.24 37.2188 130.344 37.2188C129.031 37.2188 127.875 37.3958 126.875 37.75C125.875 38.0833 125.031 38.625 124.344 39.375C123.677 40.1042 123.177 41.0521 122.844 42.2188C122.51 43.3854 122.344 44.7812 122.344 46.4062H136.656ZM148.281 48.9688C148.281 46.2188 148.615 43.8021 149.281 41.7188C149.948 39.6146 150.917 37.8542 152.188 36.4375C153.479 35.0208 155.052 33.9583 156.906 33.25C158.781 32.5208 160.917 32.1562 163.312 32.1562C164.188 32.1562 165.073 32.2396 165.969 32.4062C166.865 32.5729 167.677 32.75 168.406 32.9375C169.24 33.1667 170.052 33.4271 170.844 33.7188C170.781 34.3021 170.688 34.9062 170.562 35.5312C170.458 36.0729 170.302 36.6667 170.094 37.3125C169.906 37.9375 169.667 38.5521 169.375 39.1562C168.812 38.9271 168.208 38.7083 167.562 38.5C167 38.3333 166.354 38.1771 165.625 38.0312C164.896 37.8854 164.125 37.8125 163.312 37.8125C161.917 37.8125 160.698 38.0729 159.656 38.5938C158.635 39.0938 157.781 39.8333 157.094 40.8125C156.406 41.7708 155.896 42.9375 155.562 44.3125C155.229 45.6875 155.062 47.2292 155.062 48.9375C155.062 52.6875 155.781 55.5312 157.219 57.4688C158.677 59.4062 160.812 60.375 163.625 60.375C164.458 60.375 165.25 60.3125 166 60.1875C166.75 60.0417 167.427 59.8854 168.031 59.7188C168.719 59.5104 169.365 59.2812 169.969 59.0312C170.177 59.4896 170.365 59.9896 170.531 60.5312C170.677 61.0104 170.802 61.5625 170.906 62.1875C171.031 62.7917 171.083 63.4479 171.062 64.1562C170.292 64.4271 169.49 64.6771 168.656 64.9062C167.948 65.0938 167.146 65.2604 166.25 65.4062C165.375 65.5521 164.5 65.625 163.625 65.625C158.729 65.625 154.948 64.2292 152.281 61.4375C149.615 58.6458 148.281 54.4896 148.281 48.9688ZM180.625 27.6562C180.042 27.6562 179.49 27.5521 178.969 27.3438C178.469 27.1354 178.021 26.8542 177.625 26.5C177.25 26.1458 176.948 25.7396 176.719 25.2812C176.49 24.8021 176.375 24.2917 176.375 23.75C176.375 23.1875 176.49 22.6667 176.719 22.1875C176.948 21.7083 177.25 21.2917 177.625 20.9375C178.021 20.5833 178.469 20.3125 178.969 20.125C179.49 19.9167 180.042 19.8125 180.625 19.8125C181.208 19.8125 181.76 19.9167 182.281 20.125C182.802 20.3125 183.25 20.5833 183.625 20.9375C184.021 21.2917 184.333 21.7083 184.562 22.1875C184.792 22.6667 184.906 23.1875 184.906 23.75C184.906 24.2917 184.792 24.8021 184.562 25.2812C184.333 25.7396 184.021 26.1458 183.625 26.5C183.25 26.8542 182.802 27.1354 182.281 27.3438C181.76 27.5521 181.208 27.6562 180.625 27.6562ZM177.031 33.0625H183.531V59.75L185.375 61.0625V65H183.594L183.531 64.9375V65C181.469 65 179.865 64.5833 178.719 63.75C177.594 62.9167 177.031 61.5417 177.031 59.625V33.0625ZM195.375 37.9062H190.75C190.688 37.4062 190.646 36.9375 190.625 36.5C190.604 36.0625 190.594 35.6667 190.594 35.3125C190.594 34.6667 190.625 34.1354 190.688 33.7188C190.708 33.4896 190.74 33.2708 190.781 33.0625H195.375V29.625C195.375 28.3125 195.573 27.0417 195.969 25.8125C196.385 24.5625 197.01 23.4688 197.844 22.5312C198.698 21.5729 199.771 20.8125 201.062 20.25C202.354 19.6667 203.896 19.375 205.688 19.375C206.562 19.375 207.323 19.4167 207.969 19.5C208.615 19.5833 209.167 19.6771 209.625 19.7812C210.167 19.9062 210.625 20.0417 211 20.1875C210.958 20.7083 210.885 21.25 210.781 21.8125C210.677 22.2917 210.521 22.8438 210.312 23.4688C210.125 24.0729 209.865 24.6875 209.531 25.3125C209.219 25.2292 208.875 25.1458 208.5 25.0625C208.188 25 207.823 24.9375 207.406 24.875C206.99 24.8125 206.573 24.7812 206.156 24.7812C204.74 24.7812 203.677 25.1771 202.969 25.9688C202.281 26.7396 201.938 28.0208 201.938 29.8125V33.0625H208.969C208.99 33.1458 209.01 33.25 209.031 33.375C209.052 33.4792 209.073 33.6146 209.094 33.7812C209.115 33.9271 209.125 34.1042 209.125 34.3125C209.125 34.7292 209.062 35.2396 208.938 35.8438C208.833 36.4479 208.594 37.1354 208.219 37.9062H201.938V65H195.375V37.9062ZM211.469 33.0625H218.5L224.594 56.4062L225.938 62.6562L227.312 56.4062L233.594 33.0625H240.844L226.625 79.5625H219.844L225.062 65H221.062L211.469 33.0625Z" fill="black"/>
<path d="M224 78V78C221.538 82.6164 216.732 85.5 211.5 85.5H38.8771C33.6598 85.5 28.4767 84.6589 23.5271 83.009V83.009C17.7062 81.0687 12.7832 77.0889 9.66631 71.8037L7.71356 68.4926C4.62761 63.2599 3 57.2959 3 51.2211V44.2227C3 36.5606 5.14374 29.0514 9.1888 22.5441L9.97081 21.2861C12.9482 16.4963 17.0137 12.4766 21.8368 9.55345V9.55345C27.8308 5.9207 34.7058 4 41.7147 4H274" stroke="black" stroke-width="6"/>
</svg>
