<svg width="767" height="535" viewBox="0 0 767 535" fill="none" xmlns="http://www.w3.org/2000/svg">
<mask id="mask0_2_38" style="mask-type:alpha" maskUnits="userSpaceOnUse" x="0" y="0" width="767" height="535">
<rect width="767" height="535" fill="#D9D9D9"/>
</mask>
<g mask="url(#mask0_2_38)">
<ellipse rx="376.303" ry="249.71" transform="matrix(0.975703 -0.2191 0.223918 0.974608 382.35 277.759)" fill="#D1D6DE"/>
<rect x="45" y="51.0002" width="661" height="443" rx="23" fill="#C8C8C8"/>
<path d="M45 93.0001H706V471C706 483.703 695.703 494 683 494H68C55.2974 494 45 483.703 45 471V93.0001Z" fill="#4B4564"/>
<ellipse cx="69.5" cy="72.5001" rx="7.5" ry="8.5" fill="#AB0000"/>
<ellipse cx="112.5" cy="72.5001" rx="7.5" ry="8.5" fill="#269400"/>
<ellipse cx="91" cy="72.5001" rx="8" ry="8.5" fill="#DE5000"/>
<path d="M82.4 119.84C84.4 119.84 86.1067 120.133 87.52 120.72C88.9333 121.293 90.1 122.1 91.02 123.14C91.9533 124.167 92.68 125.38 93.2 126.78C93.72 128.18 94.0867 129.7 94.3 131.34C94.5133 132.98 94.62 134.68 94.62 136.44C94.62 139.8 94.46 142.613 94.14 144.88C93.82 147.133 93.22 148.827 92.34 149.96C91.4733 151.107 90.22 151.68 88.58 151.68C87.78 151.68 87.08 151.5 86.48 151.14C85.8933 150.78 85.4067 150.313 85.02 149.74C84.6467 149.18 84.36 148.573 84.16 147.92C83.9733 147.253 83.8667 146.627 83.84 146.04H83.68C83.4133 146.68 83.0467 147.293 82.58 147.88C82.1133 148.467 81.52 148.947 80.8 149.32C80.08 149.693 79.2 149.88 78.16 149.88C76.6667 149.88 75.4667 149.48 74.56 148.68C73.6533 147.893 72.9933 146.807 72.58 145.42C72.1667 144.033 71.96 142.467 71.96 140.72C71.96 137.32 72.6533 134.727 74.04 132.94C75.4267 131.14 77.4333 130.24 80.06 130.24C81.0467 130.24 82.02 130.36 82.98 130.6C83.9533 130.827 85 131.24 86.12 131.84V143.72C86.12 144.987 86.22 145.967 86.42 146.66C86.62 147.353 86.8933 147.833 87.24 148.1C87.6 148.367 88.0067 148.5 88.46 148.5C88.9933 148.5 89.4067 148.227 89.7 147.68C90.0067 147.133 90.2267 146.347 90.36 145.32C90.4933 144.28 90.5733 143.027 90.6 141.56C90.6267 140.093 90.64 138.44 90.64 136.6C90.64 134.627 90.5267 132.82 90.3 131.18C90.0867 129.527 89.68 128.1 89.08 126.9C88.4933 125.7 87.6533 124.773 86.56 124.12C85.4667 123.467 84.0467 123.14 82.3 123.14C80.9533 123.14 79.5333 123.393 78.04 123.9C76.56 124.407 75 125.38 73.36 126.82L71.2 124.32C73.0133 122.747 74.8467 121.607 76.7 120.9C78.5667 120.193 80.4667 119.84 82.4 119.84ZM80.12 133.28C78.5867 133.28 77.54 133.88 76.98 135.08C76.42 136.267 76.14 138.147 76.14 140.72C76.14 142 76.22 143.093 76.38 144C76.54 144.907 76.82 145.6 77.22 146.08C77.62 146.56 78.16 146.8 78.84 146.8C79.6533 146.8 80.2867 146.613 80.74 146.24C81.1933 145.867 81.5333 145.427 81.76 144.92C81.9867 144.4 82.16 143.947 82.28 143.56V133.8C81.92 133.613 81.5733 133.48 81.24 133.4C80.9067 133.32 80.5333 133.28 80.12 133.28ZM110.084 148L101.304 124.52C101.344 124.933 101.398 125.52 101.464 126.28C101.544 127.04 101.618 127.92 101.684 128.92C101.764 129.92 101.831 130.98 101.884 132.1C101.938 133.22 101.964 134.34 101.964 135.46V148H97.8444V120.4H103.864L112.664 143.9C112.598 143.34 112.511 142.52 112.404 141.44C112.311 140.347 112.218 139.08 112.124 137.64C112.044 136.187 112.004 134.633 112.004 132.98V120.4H116.124V148H110.084ZM127.009 126.88V141.64C127.009 142.893 127.255 143.787 127.749 144.32C128.255 144.853 129.015 145.12 130.029 145.12C130.989 145.12 131.915 144.833 132.809 144.26C133.702 143.687 134.409 142.987 134.929 142.16V126.88H139.409V148H135.549L135.269 145.3C134.482 146.353 133.489 147.16 132.289 147.72C131.089 148.267 129.862 148.54 128.609 148.54C126.569 148.54 125.042 147.98 124.029 146.86C123.029 145.727 122.529 144.173 122.529 142.2V126.88H127.009ZM155.793 118.4V142.24C155.793 143.213 156.086 143.907 156.673 144.32C157.273 144.72 158.046 144.92 158.993 144.92C159.606 144.92 160.186 144.853 160.733 144.72C161.28 144.587 161.813 144.42 162.333 144.22L163.473 147.34C162.846 147.66 162.073 147.94 161.153 148.18C160.246 148.42 159.206 148.54 158.033 148.54C155.913 148.54 154.26 147.947 153.073 146.76C151.9 145.56 151.313 143.92 151.313 141.84V121.7H144.933V118.4H155.793ZM179.778 118.4V142.24C179.778 143.213 180.071 143.907 180.658 144.32C181.258 144.72 182.031 144.92 182.978 144.92C183.591 144.92 184.171 144.853 184.718 144.72C185.264 144.587 185.798 144.42 186.318 144.22L187.458 147.34C186.831 147.66 186.058 147.94 185.138 148.18C184.231 148.42 183.191 148.54 182.018 148.54C179.898 148.54 178.244 147.947 177.058 146.76C175.884 145.56 175.298 143.92 175.298 141.84V121.7H168.918V118.4H179.778ZM212.342 120.4L213.902 148H209.662L209.002 134.56C208.962 133.547 208.929 132.567 208.902 131.62C208.889 130.673 208.882 129.767 208.882 128.9C208.882 128.033 208.889 127.233 208.902 126.5C208.929 125.753 208.955 125.08 208.982 124.48L204.922 143.14H200.882L196.522 124.48C196.562 125.053 196.595 125.727 196.622 126.5C196.649 127.26 196.669 128.08 196.682 128.96C196.695 129.84 196.695 130.76 196.682 131.72C196.682 132.68 196.669 133.64 196.642 134.6L196.102 148H191.942L193.502 120.4H199.062L203.002 138.9L206.762 120.4H212.342ZM234.606 142.82C234.606 143.647 234.733 144.253 234.986 144.64C235.24 145.013 235.646 145.293 236.206 145.48L235.206 148.52C234.166 148.4 233.273 148.113 232.526 147.66C231.78 147.207 231.213 146.52 230.826 145.6C230.053 146.573 229.073 147.307 227.886 147.8C226.7 148.293 225.433 148.54 224.086 148.54C221.953 148.54 220.26 147.94 219.006 146.74C217.766 145.527 217.146 143.94 217.146 141.98C217.146 139.753 218.013 138.04 219.746 136.84C221.48 135.64 223.96 135.04 227.186 135.04H230.206V133.66C230.206 132.3 229.793 131.32 228.966 130.72C228.153 130.12 227 129.82 225.506 129.82C224.813 129.82 223.973 129.913 222.986 130.1C222 130.273 220.966 130.547 219.886 130.92L218.786 127.76C220.106 127.267 221.4 126.907 222.666 126.68C223.933 126.44 225.106 126.32 226.186 126.32C229.013 126.32 231.12 126.947 232.506 128.2C233.906 129.453 234.606 131.187 234.606 133.4V142.82ZM225.446 145.24C226.353 145.24 227.24 145 228.106 144.52C228.973 144.04 229.673 143.367 230.206 142.5V137.84H227.726C225.62 137.84 224.113 138.193 223.206 138.9C222.3 139.593 221.846 140.553 221.846 141.78C221.846 142.9 222.146 143.76 222.746 144.36C223.36 144.947 224.26 145.24 225.446 145.24ZM242.651 148V144.8H245.751V130.06H242.651V126.88H249.171L249.991 131.78C250.777 130.007 251.751 128.66 252.911 127.74C254.084 126.807 255.591 126.34 257.431 126.34C258.057 126.34 258.617 126.393 259.111 126.5C259.617 126.593 260.117 126.72 260.611 126.88L259.271 130.72C258.844 130.6 258.444 130.513 258.071 130.46C257.697 130.393 257.284 130.36 256.831 130.36C255.297 130.36 253.971 130.933 252.851 132.08C251.744 133.227 250.871 134.853 250.231 136.96V144.8H254.491V148H242.651ZM256.651 134.66V129.46L257.211 126.88H260.611L259.851 134.66H256.651ZM285.035 126.88L276.495 136.32L285.935 148H280.455L271.375 136.44L279.815 126.88H285.035ZM271.055 117.9V148H266.575V118.4L271.055 117.9ZM294.139 138.88C294.233 140.32 294.539 141.5 295.059 142.42C295.579 143.327 296.259 143.993 297.099 144.42C297.953 144.847 298.886 145.06 299.899 145.06C300.939 145.06 301.899 144.9 302.779 144.58C303.659 144.26 304.546 143.807 305.439 143.22L307.379 145.9C306.393 146.7 305.239 147.34 303.919 147.82C302.599 148.3 301.186 148.54 299.679 148.54C297.493 148.54 295.639 148.073 294.119 147.14C292.613 146.207 291.466 144.907 290.679 143.24C289.893 141.573 289.499 139.647 289.499 137.46C289.499 135.34 289.886 133.447 290.659 131.78C291.433 130.1 292.539 128.773 293.979 127.8C295.419 126.813 297.139 126.32 299.139 126.32C301.019 126.32 302.633 126.747 303.979 127.6C305.339 128.453 306.386 129.667 307.119 131.24C307.866 132.8 308.239 134.68 308.239 136.88C308.239 137.24 308.226 137.6 308.199 137.96C308.186 138.307 308.166 138.613 308.139 138.88H294.139ZM299.179 129.64C297.779 129.64 296.619 130.14 295.699 131.14C294.793 132.14 294.266 133.7 294.119 135.82H303.899C303.859 133.833 303.433 132.307 302.619 131.24C301.819 130.173 300.673 129.64 299.179 129.64ZM326.804 117.9L331.284 118.4V148H327.344L327.024 145.4C326.304 146.4 325.444 147.173 324.444 147.72C323.444 148.267 322.324 148.54 321.084 148.54C319.27 148.54 317.777 148.08 316.604 147.16C315.43 146.227 314.557 144.927 313.984 143.26C313.424 141.58 313.144 139.64 313.144 137.44C313.144 135.293 313.477 133.387 314.144 131.72C314.81 130.04 315.764 128.72 317.004 127.76C318.244 126.8 319.737 126.32 321.484 126.32C322.59 126.32 323.584 126.52 324.464 126.92C325.344 127.307 326.124 127.873 326.804 128.62V117.9ZM322.664 129.76C321.157 129.76 319.984 130.387 319.144 131.64C318.304 132.88 317.884 134.813 317.884 137.44C317.884 139.24 318.057 140.707 318.404 141.84C318.75 142.96 319.25 143.787 319.904 144.32C320.557 144.84 321.344 145.1 322.264 145.1C323.277 145.1 324.157 144.807 324.904 144.22C325.65 143.633 326.284 142.927 326.804 142.1V132.1C326.284 131.353 325.677 130.78 324.984 130.38C324.29 129.967 323.517 129.76 322.664 129.76Z" fill="#D8AF1F"/>
<path d="M84.86 178.32C86.7267 178.32 88.22 178.78 89.34 179.7C90.46 180.607 91.2733 181.893 91.78 183.56C92.2867 185.213 92.54 187.16 92.54 189.4C92.54 191.547 92.2333 193.46 91.62 195.14C91.0067 196.82 90.0933 198.14 88.88 199.1C87.68 200.06 86.1867 200.54 84.4 200.54C82.1867 200.54 80.4 199.76 79.04 198.2V208.12L74.56 208.62V178.88H78.46L78.74 181.6C79.54 180.507 80.4667 179.687 81.52 179.14C82.5867 178.593 83.7 178.32 84.86 178.32ZM83.62 181.78C82.62 181.78 81.74 182.08 80.98 182.68C80.22 183.28 79.5733 183.987 79.04 184.8V194.68C79.5467 195.44 80.1467 196.027 80.84 196.44C81.5467 196.84 82.34 197.04 83.22 197.04C84.7267 197.04 85.8733 196.433 86.66 195.22C87.4467 194.007 87.84 192.073 87.84 189.42C87.84 187.62 87.68 186.16 87.36 185.04C87.0533 183.907 86.5867 183.08 85.96 182.56C85.3467 182.04 84.5667 181.78 83.62 181.78ZM103.024 178.88V193.64C103.024 194.893 103.271 195.787 103.764 196.32C104.271 196.853 105.031 197.12 106.044 197.12C107.004 197.12 107.931 196.833 108.824 196.26C109.718 195.687 110.424 194.987 110.944 194.16V178.88H115.424V200H111.564L111.284 197.3C110.498 198.353 109.504 199.16 108.304 199.72C107.104 200.267 105.878 200.54 104.624 200.54C102.584 200.54 101.058 199.98 100.044 198.86C99.0444 197.727 98.5444 196.173 98.5444 194.2V178.88H103.024ZM127.009 181.4C127.742 180.44 128.595 179.687 129.569 179.14C130.555 178.593 131.635 178.32 132.809 178.32C134.662 178.32 136.162 178.78 137.309 179.7C138.469 180.607 139.315 181.893 139.849 183.56C140.395 185.213 140.669 187.16 140.669 189.4C140.669 191.547 140.349 193.46 139.709 195.14C139.069 196.82 138.122 198.14 136.869 199.1C135.629 200.06 134.095 200.54 132.269 200.54C129.909 200.54 128.055 199.667 126.709 197.92L126.469 200H122.529V170.4L127.009 169.9V181.4ZM131.149 197.12C132.669 197.12 133.842 196.5 134.669 195.26C135.509 194.02 135.929 192.073 135.929 189.42C135.929 187.62 135.762 186.16 135.429 185.04C135.095 183.907 134.602 183.08 133.949 182.56C133.309 182.04 132.522 181.78 131.589 181.78C130.589 181.78 129.709 182.08 128.949 182.68C128.189 183.28 127.542 183.987 127.009 184.8V194.68C127.502 195.44 128.095 196.04 128.789 196.48C129.495 196.907 130.282 197.12 131.149 197.12ZM155.793 170.4V194.24C155.793 195.213 156.086 195.907 156.673 196.32C157.273 196.72 158.046 196.92 158.993 196.92C159.606 196.92 160.186 196.853 160.733 196.72C161.28 196.587 161.813 196.42 162.333 196.22L163.473 199.34C162.846 199.66 162.073 199.94 161.153 200.18C160.246 200.42 159.206 200.54 158.033 200.54C155.913 200.54 154.26 199.947 153.073 198.76C151.9 197.56 151.313 195.92 151.313 193.84V173.7H144.933V170.4H155.793ZM182.038 178.88V196.72H187.778V200H171.238V196.72H177.558V182.16H171.438V178.88H182.038ZM178.918 168.54C179.798 168.54 180.504 168.807 181.038 169.34C181.584 169.873 181.858 170.54 181.858 171.34C181.858 172.14 181.584 172.813 181.038 173.36C180.504 173.907 179.798 174.18 178.918 174.18C178.064 174.18 177.364 173.907 176.818 173.36C176.271 172.813 175.998 172.14 175.998 171.34C175.998 170.54 176.271 169.873 176.818 169.34C177.364 168.807 178.064 168.54 178.918 168.54ZM204.662 196.86C205.649 196.86 206.569 196.693 207.422 196.36C208.275 196.013 209.089 195.567 209.862 195.02L211.942 197.9C211.022 198.687 209.902 199.327 208.582 199.82C207.275 200.3 205.922 200.54 204.522 200.54C202.362 200.54 200.515 200.087 198.982 199.18C197.449 198.26 196.275 196.973 195.462 195.32C194.649 193.667 194.242 191.74 194.242 189.54C194.242 187.393 194.649 185.48 195.462 183.8C196.289 182.107 197.475 180.773 199.022 179.8C200.569 178.813 202.429 178.32 204.602 178.32C206.042 178.32 207.369 178.533 208.582 178.96C209.795 179.387 210.909 180.02 211.922 180.86L209.862 183.68C209.035 183.107 208.189 182.673 207.322 182.38C206.469 182.073 205.589 181.92 204.682 181.92C203.015 181.92 201.649 182.533 200.582 183.76C199.529 184.987 199.002 186.913 199.002 189.54C199.002 191.3 199.242 192.72 199.722 193.8C200.215 194.867 200.889 195.647 201.742 196.14C202.595 196.62 203.569 196.86 204.662 196.86ZM252.631 196.86C253.617 196.86 254.537 196.693 255.391 196.36C256.244 196.013 257.057 195.567 257.831 195.02L259.911 197.9C258.991 198.687 257.871 199.327 256.551 199.82C255.244 200.3 253.891 200.54 252.491 200.54C250.331 200.54 248.484 200.087 246.951 199.18C245.417 198.26 244.244 196.973 243.431 195.32C242.617 193.667 242.211 191.74 242.211 189.54C242.211 187.393 242.617 185.48 243.431 183.8C244.257 182.107 245.444 180.773 246.991 179.8C248.537 178.813 250.397 178.32 252.571 178.32C254.011 178.32 255.337 178.533 256.551 178.96C257.764 179.387 258.877 180.02 259.891 180.86L257.831 183.68C257.004 183.107 256.157 182.673 255.291 182.38C254.437 182.073 253.557 181.92 252.651 181.92C250.984 181.92 249.617 182.533 248.551 183.76C247.497 184.987 246.971 186.913 246.971 189.54C246.971 191.3 247.211 192.72 247.691 193.8C248.184 194.867 248.857 195.647 249.711 196.14C250.564 196.62 251.537 196.86 252.631 196.86ZM275.715 170.4V194.24C275.715 195.213 276.008 195.907 276.595 196.32C277.195 196.72 277.968 196.92 278.915 196.92C279.528 196.92 280.108 196.853 280.655 196.72C281.202 196.587 281.735 196.42 282.255 196.22L283.395 199.34C282.768 199.66 281.995 199.94 281.075 200.18C280.168 200.42 279.128 200.54 277.955 200.54C275.835 200.54 274.182 199.947 272.995 198.76C271.822 197.56 271.235 195.92 271.235 193.84V173.7H264.855V170.4H275.715ZM306.559 194.82C306.559 195.647 306.686 196.253 306.939 196.64C307.193 197.013 307.599 197.293 308.159 197.48L307.159 200.52C306.119 200.4 305.226 200.113 304.479 199.66C303.733 199.207 303.166 198.52 302.779 197.6C302.006 198.573 301.026 199.307 299.839 199.8C298.653 200.293 297.386 200.54 296.039 200.54C293.906 200.54 292.213 199.94 290.959 198.74C289.719 197.527 289.099 195.94 289.099 193.98C289.099 191.753 289.966 190.04 291.699 188.84C293.433 187.64 295.913 187.04 299.139 187.04H302.159V185.66C302.159 184.3 301.746 183.32 300.919 182.72C300.106 182.12 298.953 181.82 297.459 181.82C296.766 181.82 295.926 181.913 294.939 182.1C293.953 182.273 292.919 182.547 291.839 182.92L290.739 179.76C292.059 179.267 293.353 178.907 294.619 178.68C295.886 178.44 297.059 178.32 298.139 178.32C300.966 178.32 303.073 178.947 304.459 180.2C305.859 181.453 306.559 183.187 306.559 185.4V194.82ZM297.399 197.24C298.306 197.24 299.193 197 300.059 196.52C300.926 196.04 301.626 195.367 302.159 194.5V189.84H299.679C297.573 189.84 296.066 190.193 295.159 190.9C294.253 191.593 293.799 192.553 293.799 193.78C293.799 194.9 294.099 195.76 294.699 196.36C295.313 196.947 296.213 197.24 297.399 197.24ZM322.084 197.1C323.484 197.1 324.597 196.853 325.424 196.36C326.25 195.853 326.664 195.16 326.664 194.28C326.664 193.707 326.544 193.22 326.304 192.82C326.064 192.407 325.584 192.033 324.864 191.7C324.144 191.353 323.05 190.993 321.584 190.62C320.197 190.26 318.977 189.833 317.924 189.34C316.884 188.847 316.077 188.207 315.504 187.42C314.93 186.633 314.644 185.62 314.644 184.38C314.644 183.167 314.984 182.107 315.664 181.2C316.344 180.293 317.317 179.587 318.584 179.08C319.864 178.573 321.364 178.32 323.084 178.32C324.857 178.32 326.404 178.553 327.724 179.02C329.044 179.487 330.17 180.067 331.104 180.76L329.224 183.58C328.397 183.033 327.49 182.587 326.504 182.24C325.53 181.893 324.43 181.72 323.204 181.72C321.777 181.72 320.75 181.933 320.124 182.36C319.51 182.787 319.204 183.353 319.204 184.06C319.204 184.58 319.357 185.02 319.664 185.38C319.984 185.727 320.53 186.053 321.304 186.36C322.077 186.653 323.17 187 324.584 187.4C325.957 187.773 327.15 188.213 328.164 188.72C329.19 189.227 329.984 189.9 330.544 190.74C331.117 191.567 331.404 192.647 331.404 193.98C331.404 195.5 330.964 196.747 330.084 197.72C329.217 198.68 328.07 199.393 326.644 199.86C325.23 200.313 323.71 200.54 322.084 200.54C320.124 200.54 318.43 200.26 317.004 199.7C315.577 199.127 314.377 198.413 313.404 197.56L315.784 194.84C316.61 195.507 317.557 196.053 318.624 196.48C319.69 196.893 320.844 197.1 322.084 197.1ZM346.068 197.1C347.468 197.1 348.581 196.853 349.408 196.36C350.235 195.853 350.648 195.16 350.648 194.28C350.648 193.707 350.528 193.22 350.288 192.82C350.048 192.407 349.568 192.033 348.848 191.7C348.128 191.353 347.035 190.993 345.568 190.62C344.181 190.26 342.961 189.833 341.908 189.34C340.868 188.847 340.061 188.207 339.488 187.42C338.915 186.633 338.628 185.62 338.628 184.38C338.628 183.167 338.968 182.107 339.648 181.2C340.328 180.293 341.301 179.587 342.568 179.08C343.848 178.573 345.348 178.32 347.068 178.32C348.841 178.32 350.388 178.553 351.708 179.02C353.028 179.487 354.155 180.067 355.088 180.76L353.208 183.58C352.381 183.033 351.475 182.587 350.488 182.24C349.515 181.893 348.415 181.72 347.188 181.72C345.761 181.72 344.735 181.933 344.108 182.36C343.495 182.787 343.188 183.353 343.188 184.06C343.188 184.58 343.341 185.02 343.648 185.38C343.968 185.727 344.515 186.053 345.288 186.36C346.061 186.653 347.155 187 348.568 187.4C349.941 187.773 351.135 188.213 352.148 188.72C353.175 189.227 353.968 189.9 354.528 190.74C355.101 191.567 355.388 192.647 355.388 193.98C355.388 195.5 354.948 196.747 354.068 197.72C353.201 198.68 352.055 199.393 350.628 199.86C349.215 200.313 347.695 200.54 346.068 200.54C344.108 200.54 342.415 200.26 340.988 199.7C339.561 199.127 338.361 198.413 337.388 197.56L339.768 194.84C340.595 195.507 341.541 196.053 342.608 196.48C343.675 196.893 344.828 197.1 346.068 197.1Z" fill="#9F45D7"/>
<path d="M616.936 166.52V169.82C616.03 169.82 615.216 169.907 614.496 170.08C613.79 170.253 613.243 170.553 612.856 170.98C612.483 171.407 612.336 172 612.416 172.76L613.156 180.1C613.29 181.353 613.183 182.387 612.836 183.2C612.503 184 611.963 184.62 611.216 185.06C610.47 185.5 609.556 185.813 608.476 186C609.596 186.187 610.53 186.493 611.276 186.92C612.023 187.333 612.556 187.94 612.876 188.74C613.196 189.54 613.29 190.593 613.156 191.9L612.416 199.24C612.336 200 612.483 200.593 612.856 201.02C613.243 201.46 613.79 201.76 614.496 201.92C615.216 202.093 616.03 202.18 616.936 202.18V205.48C615.55 205.48 614.29 205.367 613.156 205.14C612.036 204.927 611.083 204.567 610.296 204.06C609.523 203.553 608.956 202.867 608.596 202C608.25 201.147 608.143 200.087 608.276 198.82L609.016 191.92C609.11 190.973 608.983 190.2 608.636 189.6C608.303 188.987 607.696 188.533 606.816 188.24C605.936 187.947 604.723 187.8 603.176 187.8V184.2C604.71 184.2 605.916 184.06 606.796 183.78C607.69 183.487 608.303 183.04 608.636 182.44C608.983 181.827 609.11 181.047 609.016 180.1L608.276 173.2C608.143 171.92 608.25 170.847 608.596 169.98C608.956 169.113 609.523 168.433 610.296 167.94C611.083 167.433 612.036 167.073 613.156 166.86C614.29 166.633 615.55 166.52 616.936 166.52ZM139.269 276.4V279.94H133.309V300.44H139.269V304H122.669V300.44H128.629V279.94H122.669V276.4H139.269ZM146.513 304V282.88H150.373L150.713 285.62C151.593 284.54 152.633 283.72 153.833 283.16C155.033 282.6 156.266 282.32 157.533 282.32C159.506 282.32 160.98 282.873 161.953 283.98C162.94 285.073 163.433 286.613 163.433 288.6V304H158.953V290.82C158.953 289.593 158.88 288.607 158.733 287.86C158.586 287.113 158.293 286.573 157.853 286.24C157.426 285.907 156.786 285.74 155.933 285.74C155.253 285.74 154.606 285.887 153.993 286.18C153.38 286.473 152.82 286.86 152.313 287.34C151.806 287.807 151.366 288.307 150.993 288.84V304H146.513ZM188.138 302.88C187.364 303.373 186.438 303.773 185.358 304.08C184.278 304.387 183.151 304.54 181.978 304.54C179.524 304.54 177.658 303.907 176.378 302.64C175.111 301.36 174.478 299.68 174.478 297.6V286.14H169.778V282.88H174.478V278.16L178.958 277.62V282.88H186.078L185.578 286.14H178.958V297.56C178.958 298.693 179.238 299.54 179.798 300.1C180.371 300.647 181.304 300.92 182.598 300.92C183.371 300.92 184.084 300.827 184.738 300.64C185.391 300.453 185.984 300.213 186.518 299.92L188.138 302.88ZM198.202 294.88C198.295 296.32 198.602 297.5 199.122 298.42C199.642 299.327 200.322 299.993 201.162 300.42C202.015 300.847 202.949 301.06 203.962 301.06C205.002 301.06 205.962 300.9 206.842 300.58C207.722 300.26 208.609 299.807 209.502 299.22L211.442 301.9C210.455 302.7 209.302 303.34 207.982 303.82C206.662 304.3 205.249 304.54 203.742 304.54C201.555 304.54 199.702 304.073 198.182 303.14C196.675 302.207 195.529 300.907 194.742 299.24C193.955 297.573 193.562 295.647 193.562 293.46C193.562 291.34 193.949 289.447 194.722 287.78C195.495 286.1 196.602 284.773 198.042 283.8C199.482 282.813 201.202 282.32 203.202 282.32C205.082 282.32 206.695 282.747 208.042 283.6C209.402 284.453 210.449 285.667 211.182 287.24C211.929 288.8 212.302 290.68 212.302 292.88C212.302 293.24 212.289 293.6 212.262 293.96C212.249 294.307 212.229 294.613 212.202 294.88H198.202ZM203.242 285.64C201.842 285.64 200.682 286.14 199.762 287.14C198.855 288.14 198.329 289.7 198.182 291.82H207.962C207.922 289.833 207.495 288.307 206.682 287.24C205.882 286.173 204.735 285.64 203.242 285.64ZM236.246 280.2L237.446 283.92C236.606 284.2 235.68 284.387 234.666 284.48C233.666 284.573 232.546 284.62 231.306 284.62C232.573 285.18 233.526 285.9 234.166 286.78C234.806 287.647 235.126 288.713 235.126 289.98C235.126 291.353 234.793 292.58 234.126 293.66C233.46 294.74 232.506 295.587 231.266 296.2C230.026 296.813 228.54 297.12 226.806 297.12C226.193 297.12 225.66 297.093 225.206 297.04C224.766 296.987 224.333 296.9 223.906 296.78C223.64 296.967 223.413 297.22 223.226 297.54C223.053 297.847 222.966 298.173 222.966 298.52C222.966 298.947 223.14 299.32 223.486 299.64C223.846 299.947 224.553 300.1 225.606 300.1H229.286C230.793 300.1 232.12 300.36 233.266 300.88C234.426 301.387 235.333 302.087 235.986 302.98C236.653 303.86 236.986 304.86 236.986 305.98C236.986 308.087 236.08 309.72 234.266 310.88C232.453 312.04 229.84 312.62 226.426 312.62C224.013 312.62 222.12 312.373 220.746 311.88C219.373 311.387 218.406 310.653 217.846 309.68C217.286 308.707 217.006 307.513 217.006 306.1H221.026C221.026 306.833 221.166 307.44 221.446 307.92C221.74 308.4 222.28 308.76 223.066 309C223.853 309.24 224.986 309.36 226.466 309.36C227.946 309.36 229.12 309.233 229.986 308.98C230.866 308.74 231.5 308.387 231.886 307.92C232.286 307.467 232.486 306.92 232.486 306.28C232.486 305.427 232.113 304.767 231.366 304.3C230.62 303.833 229.62 303.6 228.366 303.6H224.746C222.746 303.6 221.28 303.193 220.346 302.38C219.426 301.567 218.966 300.62 218.966 299.54C218.966 298.82 219.166 298.127 219.566 297.46C219.98 296.793 220.566 296.213 221.326 295.72C220.06 295.053 219.133 294.247 218.546 293.3C217.973 292.34 217.686 291.18 217.686 289.82C217.686 288.327 218.06 287.02 218.806 285.9C219.553 284.78 220.586 283.907 221.906 283.28C223.24 282.653 224.773 282.34 226.506 282.34C228.2 282.34 229.613 282.253 230.746 282.08C231.88 281.893 232.866 281.633 233.706 281.3C234.56 280.967 235.406 280.6 236.246 280.2ZM226.546 285.42C225.12 285.42 224.046 285.827 223.326 286.64C222.606 287.44 222.246 288.487 222.246 289.78C222.246 291.113 222.613 292.187 223.346 293C224.093 293.8 225.18 294.2 226.606 294.2C227.926 294.2 228.933 293.813 229.626 293.04C230.333 292.267 230.686 291.167 230.686 289.74C230.686 288.3 230.34 287.22 229.646 286.5C228.953 285.78 227.92 285.42 226.546 285.42ZM246.171 294.88C246.264 296.32 246.571 297.5 247.091 298.42C247.611 299.327 248.291 299.993 249.131 300.42C249.984 300.847 250.917 301.06 251.931 301.06C252.971 301.06 253.931 300.9 254.811 300.58C255.691 300.26 256.577 299.807 257.471 299.22L259.411 301.9C258.424 302.7 257.271 303.34 255.951 303.82C254.631 304.3 253.217 304.54 251.711 304.54C249.524 304.54 247.671 304.073 246.151 303.14C244.644 302.207 243.497 300.907 242.711 299.24C241.924 297.573 241.531 295.647 241.531 293.46C241.531 291.34 241.917 289.447 242.691 287.78C243.464 286.1 244.571 284.773 246.011 283.8C247.451 282.813 249.171 282.32 251.171 282.32C253.051 282.32 254.664 282.747 256.011 283.6C257.371 284.453 258.417 285.667 259.151 287.24C259.897 288.8 260.271 290.68 260.271 292.88C260.271 293.24 260.257 293.6 260.231 293.96C260.217 294.307 260.197 294.613 260.171 294.88H246.171ZM251.211 285.64C249.811 285.64 248.651 286.14 247.731 287.14C246.824 288.14 246.297 289.7 246.151 291.82H255.931C255.891 289.833 255.464 288.307 254.651 287.24C253.851 286.173 252.704 285.64 251.211 285.64ZM266.635 304V300.8H269.735V286.06H266.635V282.88H273.155L273.975 287.78C274.762 286.007 275.735 284.66 276.895 283.74C278.068 282.807 279.575 282.34 281.415 282.34C282.042 282.34 282.602 282.393 283.095 282.5C283.602 282.593 284.102 282.72 284.595 282.88L283.255 286.72C282.828 286.6 282.428 286.513 282.055 286.46C281.682 286.393 281.268 286.36 280.815 286.36C279.282 286.36 277.955 286.933 276.835 288.08C275.728 289.227 274.855 290.853 274.215 292.96V300.8H278.475V304H266.635ZM280.635 290.66V285.46L281.195 282.88H284.595L283.835 290.66H280.635ZM463.99 290C463.99 291.92 464.143 293.66 464.45 295.22C464.77 296.767 465.263 298.213 465.93 299.56C466.597 300.893 467.443 302.2 468.47 303.48C469.51 304.76 470.743 306.087 472.17 307.46L469.69 309.86C467.543 308.073 465.697 306.22 464.15 304.3C462.617 302.393 461.437 300.28 460.61 297.96C459.783 295.64 459.37 292.987 459.37 290C459.37 287 459.783 284.34 460.61 282.02C461.437 279.7 462.617 277.587 464.15 275.68C465.697 273.76 467.543 271.913 469.69 270.14L472.17 272.54C470.77 273.887 469.55 275.2 468.51 276.48C467.483 277.747 466.63 279.053 465.95 280.4C465.283 281.747 464.79 283.2 464.47 284.76C464.15 286.32 463.99 288.067 463.99 290ZM493.494 290C493.494 288.067 493.334 286.32 493.014 284.76C492.694 283.2 492.194 281.747 491.514 280.4C490.848 279.053 489.994 277.747 488.954 276.48C487.928 275.2 486.714 273.887 485.314 272.54L487.794 270.14C489.941 271.913 491.781 273.76 493.314 275.68C494.861 277.587 496.048 279.7 496.874 282.02C497.701 284.34 498.114 287 498.114 290C498.114 292.987 497.701 295.64 496.874 297.96C496.048 300.28 494.861 302.393 493.314 304.3C491.781 306.22 489.941 308.073 487.794 309.86L485.314 307.46C486.741 306.087 487.968 304.76 488.994 303.48C490.034 302.2 490.888 300.893 491.554 299.56C492.221 298.213 492.708 296.767 493.014 295.22C493.334 293.66 493.494 291.92 493.494 290ZM544.983 270.52V273.82C544.076 273.82 543.263 273.907 542.543 274.08C541.836 274.253 541.29 274.553 540.903 274.98C540.53 275.407 540.383 276 540.463 276.76L541.203 284.1C541.336 285.353 541.23 286.387 540.883 287.2C540.55 288 540.01 288.62 539.263 289.06C538.516 289.5 537.603 289.813 536.523 290C537.643 290.187 538.576 290.493 539.323 290.92C540.07 291.333 540.603 291.94 540.923 292.74C541.243 293.54 541.336 294.593 541.203 295.9L540.463 303.24C540.383 304 540.53 304.593 540.903 305.02C541.29 305.46 541.836 305.76 542.543 305.92C543.263 306.093 544.076 306.18 544.983 306.18V309.48C543.596 309.48 542.336 309.367 541.203 309.14C540.083 308.927 539.13 308.567 538.343 308.06C537.57 307.553 537.003 306.867 536.643 306C536.296 305.147 536.19 304.087 536.323 302.82L537.063 295.92C537.156 294.973 537.03 294.2 536.683 293.6C536.35 292.987 535.743 292.533 534.863 292.24C533.983 291.947 532.77 291.8 531.223 291.8V288.2C532.756 288.2 533.963 288.06 534.843 287.78C535.736 287.487 536.35 287.04 536.683 286.44C537.03 285.827 537.156 285.047 537.063 284.1L536.323 277.2C536.19 275.92 536.296 274.847 536.643 273.98C537.003 273.113 537.57 272.433 538.343 271.94C539.13 271.433 540.083 271.073 541.203 270.86C542.336 270.633 543.596 270.52 544.983 270.52ZM442.746 348.9C443.772 348.9 444.626 349.247 445.306 349.94C445.999 350.633 446.346 351.48 446.346 352.48C446.346 353.053 446.252 353.647 446.066 354.26C445.892 354.86 445.612 355.593 445.226 356.46L442.166 363.46H438.726L440.646 355.44C439.646 354.747 439.146 353.753 439.146 352.46C439.146 351.46 439.492 350.62 440.186 349.94C440.879 349.247 441.732 348.9 442.746 348.9ZM442.746 335.14C443.772 335.14 444.626 335.493 445.306 336.2C445.999 336.893 446.346 337.733 446.346 338.72C446.346 339.707 445.999 340.56 445.306 341.28C444.626 341.987 443.772 342.34 442.746 342.34C441.732 342.34 440.879 341.987 440.186 341.28C439.492 340.56 439.146 339.707 439.146 338.72C439.146 338.067 439.306 337.467 439.626 336.92C439.946 336.373 440.379 335.94 440.926 335.62C441.472 335.3 442.079 335.14 442.746 335.14ZM124.689 374.52C126.075 374.52 127.329 374.633 128.449 374.86C129.582 375.073 130.535 375.433 131.309 375.94C132.095 376.447 132.669 377.133 133.029 378C133.389 378.853 133.495 379.913 133.349 381.18L132.609 388.1C132.515 389.047 132.655 389.827 133.029 390.44C133.415 391.04 134.055 391.487 134.949 391.78C135.842 392.06 137.009 392.2 138.449 392.2V395.8C137.009 395.8 135.842 395.947 134.949 396.24C134.055 396.533 133.415 396.987 133.029 397.6C132.655 398.2 132.515 398.973 132.609 399.92L133.349 406.8C133.482 408.08 133.369 409.153 133.009 410.02C132.662 410.887 132.095 411.567 131.309 412.06C130.535 412.567 129.582 412.927 128.449 413.14C127.329 413.367 126.075 413.48 124.689 413.48V410.18C125.595 410.18 126.402 410.093 127.109 409.92C127.829 409.76 128.375 409.46 128.749 409.02C129.135 408.593 129.289 408 129.209 407.24L128.469 399.9C128.335 398.593 128.435 397.54 128.769 396.74C129.115 395.94 129.682 395.333 130.469 394.92C131.255 394.493 132.242 394.193 133.429 394.02C132.242 393.833 131.255 393.52 130.469 393.08C129.682 392.627 129.115 392 128.769 391.2C128.435 390.4 128.335 389.367 128.469 388.1L129.209 380.76C129.289 380 129.135 379.407 128.749 378.98C128.375 378.553 127.835 378.253 127.129 378.08C126.422 377.907 125.609 377.82 124.689 377.82V374.52ZM76.72 426.52C78.1067 426.52 79.36 426.633 80.48 426.86C81.6133 427.073 82.5667 427.433 83.34 427.94C84.1267 428.447 84.7 429.133 85.06 430C85.42 430.853 85.5267 431.913 85.38 433.18L84.64 440.1C84.5467 441.047 84.6867 441.827 85.06 442.44C85.4467 443.04 86.0867 443.487 86.98 443.78C87.8733 444.06 89.04 444.2 90.48 444.2V447.8C89.04 447.8 87.8733 447.947 86.98 448.24C86.0867 448.533 85.4467 448.987 85.06 449.6C84.6867 450.2 84.5467 450.973 84.64 451.92L85.38 458.8C85.5133 460.08 85.4 461.153 85.04 462.02C84.6933 462.887 84.1267 463.567 83.34 464.06C82.5667 464.567 81.6133 464.927 80.48 465.14C79.36 465.367 78.1067 465.48 76.72 465.48V462.18C77.6267 462.18 78.4333 462.093 79.14 461.92C79.86 461.76 80.4067 461.46 80.78 461.02C81.1667 460.593 81.32 460 81.24 459.24L80.5 451.9C80.3667 450.593 80.4667 449.54 80.8 448.74C81.1467 447.94 81.7133 447.333 82.5 446.92C83.2867 446.493 84.2733 446.193 85.46 446.02C84.2733 445.833 83.2867 445.52 82.5 445.08C81.7133 444.627 81.1467 444 80.8 443.2C80.4667 442.4 80.3667 441.367 80.5 440.1L81.24 432.76C81.32 432 81.1667 431.407 80.78 430.98C80.4067 430.553 79.8667 430.253 79.16 430.08C78.4533 429.907 77.64 429.82 76.72 429.82V426.52Z" fill="#F7F7F7"/>
<path d="M403.117 172.4V190.54C403.117 191.86 402.93 193.12 402.557 194.32C402.184 195.52 401.59 196.587 400.777 197.52C399.977 198.44 398.937 199.173 397.657 199.72C396.39 200.253 394.857 200.52 393.057 200.52C391.537 200.52 390.13 200.3 388.837 199.86C387.544 199.42 386.33 198.793 385.197 197.98L387.097 195.02C388.19 195.74 389.197 196.227 390.117 196.48C391.05 196.733 391.97 196.86 392.877 196.86C394.61 196.86 395.977 196.307 396.977 195.2C397.99 194.093 398.497 192.507 398.497 190.44V175.96H390.197V172.4H403.117ZM428.721 192.2C428.721 193.827 428.301 195.273 427.461 196.54C426.635 197.793 425.435 198.773 423.861 199.48C422.301 200.187 420.415 200.54 418.201 200.54C415.961 200.54 413.995 200.207 412.301 199.54C410.621 198.86 409.201 197.96 408.041 196.84L410.581 194C411.568 194.893 412.681 195.6 413.921 196.12C415.161 196.627 416.581 196.88 418.181 196.88C419.221 196.88 420.175 196.72 421.041 196.4C421.908 196.067 422.601 195.573 423.121 194.92C423.641 194.253 423.901 193.42 423.901 192.42C423.901 191.607 423.735 190.92 423.401 190.36C423.068 189.8 422.488 189.293 421.661 188.84C420.848 188.387 419.708 187.947 418.241 187.52C416.295 186.933 414.661 186.28 413.341 185.56C412.021 184.84 411.021 183.98 410.341 182.98C409.675 181.967 409.341 180.74 409.341 179.3C409.341 177.807 409.748 176.5 410.561 175.38C411.388 174.26 412.515 173.393 413.941 172.78C415.381 172.153 417.008 171.84 418.821 171.84C420.821 171.84 422.568 172.127 424.061 172.7C425.555 173.273 426.888 174.093 428.061 175.16L425.621 177.92C424.648 177.067 423.601 176.447 422.481 176.06C421.375 175.673 420.248 175.48 419.101 175.48C418.168 175.48 417.321 175.613 416.561 175.88C415.801 176.147 415.201 176.54 414.761 177.06C414.321 177.58 414.101 178.24 414.101 179.04C414.101 179.747 414.295 180.353 414.681 180.86C415.081 181.367 415.748 181.84 416.681 182.28C417.628 182.707 418.921 183.167 420.561 183.66C422.108 184.113 423.495 184.673 424.721 185.34C425.961 186.007 426.935 186.88 427.641 187.96C428.361 189.04 428.721 190.453 428.721 192.2ZM444.626 178.32C446.492 178.32 447.986 178.78 449.106 179.7C450.226 180.607 451.039 181.893 451.546 183.56C452.052 185.213 452.306 187.16 452.306 189.4C452.306 191.547 451.999 193.46 451.386 195.14C450.772 196.82 449.859 198.14 448.646 199.1C447.446 200.06 445.952 200.54 444.166 200.54C441.952 200.54 440.166 199.76 438.806 198.2V208.12L434.326 208.62V178.88H438.226L438.506 181.6C439.306 180.507 440.232 179.687 441.286 179.14C442.352 178.593 443.466 178.32 444.626 178.32ZM443.386 181.78C442.386 181.78 441.506 182.08 440.746 182.68C439.986 183.28 439.339 183.987 438.806 184.8V194.68C439.312 195.44 439.912 196.027 440.606 196.44C441.312 196.84 442.106 197.04 442.986 197.04C444.492 197.04 445.639 196.433 446.426 195.22C447.212 194.007 447.606 192.073 447.606 189.42C447.606 187.62 447.446 186.16 447.126 185.04C446.819 183.907 446.352 183.08 445.726 182.56C445.112 182.04 444.332 181.78 443.386 181.78ZM462.03 190.88C462.123 192.32 462.43 193.5 462.95 194.42C463.47 195.327 464.15 195.993 464.99 196.42C465.843 196.847 466.777 197.06 467.79 197.06C468.83 197.06 469.79 196.9 470.67 196.58C471.55 196.26 472.437 195.807 473.33 195.22L475.27 197.9C474.283 198.7 473.13 199.34 471.81 199.82C470.49 200.3 469.077 200.54 467.57 200.54C465.383 200.54 463.53 200.073 462.01 199.14C460.503 198.207 459.357 196.907 458.57 195.24C457.783 193.573 457.39 191.647 457.39 189.46C457.39 187.34 457.777 185.447 458.55 183.78C459.323 182.1 460.43 180.773 461.87 179.8C463.31 178.813 465.03 178.32 467.03 178.32C468.91 178.32 470.523 178.747 471.87 179.6C473.23 180.453 474.277 181.667 475.01 183.24C475.757 184.8 476.13 186.68 476.13 188.88C476.13 189.24 476.117 189.6 476.09 189.96C476.077 190.307 476.057 190.613 476.03 190.88H462.03ZM467.07 181.64C465.67 181.64 464.51 182.14 463.59 183.14C462.683 184.14 462.157 185.7 462.01 187.82H471.79C471.75 185.833 471.323 184.307 470.51 183.24C469.71 182.173 468.563 181.64 467.07 181.64ZM492.474 196.86C493.461 196.86 494.381 196.693 495.234 196.36C496.088 196.013 496.901 195.567 497.674 195.02L499.754 197.9C498.834 198.687 497.714 199.327 496.394 199.82C495.088 200.3 493.734 200.54 492.334 200.54C490.174 200.54 488.328 200.087 486.794 199.18C485.261 198.26 484.088 196.973 483.274 195.32C482.461 193.667 482.054 191.74 482.054 189.54C482.054 187.393 482.461 185.48 483.274 183.8C484.101 182.107 485.288 180.773 486.834 179.8C488.381 178.813 490.241 178.32 492.414 178.32C493.854 178.32 495.181 178.533 496.394 178.96C497.608 179.387 498.721 180.02 499.734 180.86L497.674 183.68C496.848 183.107 496.001 182.673 495.134 182.38C494.281 182.073 493.401 181.92 492.494 181.92C490.828 181.92 489.461 182.533 488.394 183.76C487.341 184.987 486.814 186.913 486.814 189.54C486.814 191.3 487.054 192.72 487.534 193.8C488.028 194.867 488.701 195.647 489.554 196.14C490.408 196.62 491.381 196.86 492.474 196.86ZM517.819 178.88V196.72H523.559V200H507.019V196.72H513.339V182.16H507.219V178.88H517.819ZM514.699 168.54C515.579 168.54 516.285 168.807 516.819 169.34C517.365 169.873 517.639 170.54 517.639 171.34C517.639 172.14 517.365 172.813 516.819 173.36C516.285 173.907 515.579 174.18 514.699 174.18C513.845 174.18 513.145 173.907 512.599 173.36C512.052 172.813 511.779 172.14 511.779 171.34C511.779 170.54 512.052 169.873 512.599 169.34C513.145 168.807 513.845 168.54 514.699 168.54ZM543.103 169.9C544.396 169.9 545.55 170.013 546.563 170.24C547.59 170.453 548.536 170.747 549.403 171.12L548.083 174.22C547.376 173.927 546.636 173.713 545.863 173.58C545.103 173.447 544.33 173.38 543.543 173.38C542.156 173.38 541.13 173.647 540.463 174.18C539.796 174.7 539.463 175.527 539.463 176.66V180.4H546.523L546.043 183.7H539.463V200H535.003V183.7H530.203V180.4H535.003V176.62C535.003 175.287 535.336 174.12 536.003 173.12C536.683 172.107 537.63 171.32 538.843 170.76C540.056 170.187 541.476 169.9 543.103 169.9ZM572.727 178.88L565.448 200.08C564.901 201.68 564.201 203.087 563.348 204.3C562.494 205.527 561.401 206.513 560.068 207.26C558.734 208.007 557.081 208.467 555.108 208.64L554.528 205.28C555.954 205.053 557.088 204.72 557.928 204.28C558.781 203.853 559.454 203.287 559.948 202.58C560.454 201.873 560.901 201.013 561.288 200H559.768L552.648 178.88H557.408L562.728 196.88L568.128 178.88H572.727Z" fill="#EEEEEE"/>
<path d="M130.369 223.84C132.369 223.84 134.075 224.133 135.489 224.72C136.902 225.293 138.069 226.1 138.989 227.14C139.922 228.167 140.649 229.38 141.169 230.78C141.689 232.18 142.055 233.7 142.269 235.34C142.482 236.98 142.589 238.68 142.589 240.44C142.589 243.8 142.429 246.613 142.109 248.88C141.789 251.133 141.189 252.827 140.309 253.96C139.442 255.107 138.189 255.68 136.549 255.68C135.749 255.68 135.049 255.5 134.449 255.14C133.862 254.78 133.375 254.313 132.989 253.74C132.615 253.18 132.329 252.573 132.129 251.92C131.942 251.253 131.835 250.627 131.809 250.04H131.649C131.382 250.68 131.015 251.293 130.549 251.88C130.082 252.467 129.489 252.947 128.769 253.32C128.049 253.693 127.169 253.88 126.129 253.88C124.635 253.88 123.435 253.48 122.529 252.68C121.622 251.893 120.962 250.807 120.549 249.42C120.135 248.033 119.929 246.467 119.929 244.72C119.929 241.32 120.622 238.727 122.009 236.94C123.395 235.14 125.402 234.24 128.029 234.24C129.015 234.24 129.989 234.36 130.949 234.6C131.922 234.827 132.969 235.24 134.089 235.84V247.72C134.089 248.987 134.189 249.967 134.389 250.66C134.589 251.353 134.862 251.833 135.209 252.1C135.569 252.367 135.975 252.5 136.429 252.5C136.962 252.5 137.375 252.227 137.669 251.68C137.975 251.133 138.195 250.347 138.329 249.32C138.462 248.28 138.542 247.027 138.569 245.56C138.595 244.093 138.609 242.44 138.609 240.6C138.609 238.627 138.495 236.82 138.269 235.18C138.055 233.527 137.649 232.1 137.049 230.9C136.462 229.7 135.622 228.773 134.529 228.12C133.435 227.467 132.015 227.14 130.269 227.14C128.922 227.14 127.502 227.393 126.009 227.9C124.529 228.407 122.969 229.38 121.329 230.82L119.169 228.32C120.982 226.747 122.815 225.607 124.669 224.9C126.535 224.193 128.435 223.84 130.369 223.84ZM128.089 237.28C126.555 237.28 125.509 237.88 124.949 239.08C124.389 240.267 124.109 242.147 124.109 244.72C124.109 246 124.189 247.093 124.349 248C124.509 248.907 124.789 249.6 125.189 250.08C125.589 250.56 126.129 250.8 126.809 250.8C127.622 250.8 128.255 250.613 128.709 250.24C129.162 249.867 129.502 249.427 129.729 248.92C129.955 248.4 130.129 247.947 130.249 247.56V237.8C129.889 237.613 129.542 237.48 129.209 237.4C128.875 237.32 128.502 237.28 128.089 237.28ZM158.053 252L149.273 228.52C149.313 228.933 149.366 229.52 149.433 230.28C149.513 231.04 149.586 231.92 149.653 232.92C149.733 233.92 149.8 234.98 149.853 236.1C149.906 237.22 149.933 238.34 149.933 239.46V252H145.813V224.4H151.833L160.633 247.9C160.566 247.34 160.48 246.52 160.373 245.44C160.28 244.347 160.186 243.08 160.093 241.64C160.013 240.187 159.973 238.633 159.973 236.98V224.4H164.093V252H158.053ZM174.978 230.88V245.64C174.978 246.893 175.224 247.787 175.718 248.32C176.224 248.853 176.984 249.12 177.998 249.12C178.958 249.12 179.884 248.833 180.778 248.26C181.671 247.687 182.378 246.987 182.898 246.16V230.88H187.378V252H183.518L183.238 249.3C182.451 250.353 181.458 251.16 180.258 251.72C179.058 252.267 177.831 252.54 176.578 252.54C174.538 252.54 173.011 251.98 171.998 250.86C170.998 249.727 170.498 248.173 170.498 246.2V230.88H174.978ZM203.762 222.4V246.24C203.762 247.213 204.055 247.907 204.642 248.32C205.242 248.72 206.015 248.92 206.962 248.92C207.575 248.92 208.155 248.853 208.702 248.72C209.249 248.587 209.782 248.42 210.302 248.22L211.442 251.34C210.815 251.66 210.042 251.94 209.122 252.18C208.215 252.42 207.175 252.54 206.002 252.54C203.882 252.54 202.229 251.947 201.042 250.76C199.869 249.56 199.282 247.92 199.282 245.84V225.7H192.902V222.4H203.762ZM227.746 222.4V246.24C227.746 247.213 228.04 247.907 228.626 248.32C229.226 248.72 230 248.92 230.946 248.92C231.56 248.92 232.14 248.853 232.686 248.72C233.233 248.587 233.766 248.42 234.286 248.22L235.426 251.34C234.8 251.66 234.026 251.94 233.106 252.18C232.2 252.42 231.16 252.54 229.986 252.54C227.866 252.54 226.213 251.947 225.026 250.76C223.853 249.56 223.266 247.92 223.266 245.84V225.7H216.886V222.4H227.746ZM258.591 246.82C258.591 247.647 258.717 248.253 258.971 248.64C259.224 249.013 259.631 249.293 260.191 249.48L259.191 252.52C258.151 252.4 257.257 252.113 256.511 251.66C255.764 251.207 255.197 250.52 254.811 249.6C254.037 250.573 253.057 251.307 251.871 251.8C250.684 252.293 249.417 252.54 248.071 252.54C245.937 252.54 244.244 251.94 242.991 250.74C241.751 249.527 241.131 247.94 241.131 245.98C241.131 243.753 241.997 242.04 243.731 240.84C245.464 239.64 247.944 239.04 251.171 239.04H254.191V237.66C254.191 236.3 253.777 235.32 252.951 234.72C252.137 234.12 250.984 233.82 249.491 233.82C248.797 233.82 247.957 233.913 246.971 234.1C245.984 234.273 244.951 234.547 243.871 234.92L242.771 231.76C244.091 231.267 245.384 230.907 246.651 230.68C247.917 230.44 249.091 230.32 250.171 230.32C252.997 230.32 255.104 230.947 256.491 232.2C257.891 233.453 258.591 235.187 258.591 237.4V246.82ZM249.431 249.24C250.337 249.24 251.224 249 252.091 248.52C252.957 248.04 253.657 247.367 254.191 246.5V241.84H251.711C249.604 241.84 248.097 242.193 247.191 242.9C246.284 243.593 245.831 244.553 245.831 245.78C245.831 246.9 246.131 247.76 246.731 248.36C247.344 248.947 248.244 249.24 249.431 249.24ZM270.915 233.4C271.648 232.44 272.502 231.687 273.475 231.14C274.462 230.593 275.542 230.32 276.715 230.32C278.568 230.32 280.068 230.78 281.215 231.7C282.375 232.607 283.222 233.893 283.755 235.56C284.302 237.213 284.575 239.16 284.575 241.4C284.575 243.547 284.255 245.46 283.615 247.14C282.975 248.82 282.028 250.14 280.775 251.1C279.535 252.06 278.002 252.54 276.175 252.54C273.815 252.54 271.962 251.667 270.615 249.92L270.375 252H266.435V222.4L270.915 221.9V233.4ZM275.055 249.12C276.575 249.12 277.748 248.5 278.575 247.26C279.415 246.02 279.835 244.073 279.835 241.42C279.835 239.62 279.668 238.16 279.335 237.04C279.002 235.907 278.508 235.08 277.855 234.56C277.215 234.04 276.428 233.78 275.495 233.78C274.495 233.78 273.615 234.08 272.855 234.68C272.095 235.28 271.448 235.987 270.915 236.8V246.68C271.408 247.44 272.002 248.04 272.695 248.48C273.402 248.907 274.188 249.12 275.055 249.12ZM299.699 222.4V246.24C299.699 247.213 299.993 247.907 300.579 248.32C301.179 248.72 301.953 248.92 302.899 248.92C303.513 248.92 304.093 248.853 304.639 248.72C305.186 248.587 305.719 248.42 306.239 248.22L307.379 251.34C306.753 251.66 305.979 251.94 305.059 252.18C304.153 252.42 303.113 252.54 301.939 252.54C299.819 252.54 298.166 251.947 296.979 250.76C295.806 249.56 295.219 247.92 295.219 245.84V225.7H288.839V222.4H299.699ZM318.124 242.88C318.217 244.32 318.524 245.5 319.044 246.42C319.564 247.327 320.244 247.993 321.084 248.42C321.937 248.847 322.87 249.06 323.884 249.06C324.924 249.06 325.884 248.9 326.764 248.58C327.644 248.26 328.53 247.807 329.424 247.22L331.364 249.9C330.377 250.7 329.224 251.34 327.904 251.82C326.584 252.3 325.17 252.54 323.664 252.54C321.477 252.54 319.624 252.073 318.104 251.14C316.597 250.207 315.45 248.907 314.664 247.24C313.877 245.573 313.484 243.647 313.484 241.46C313.484 239.34 313.87 237.447 314.644 235.78C315.417 234.1 316.524 232.773 317.964 231.8C319.404 230.813 321.124 230.32 323.124 230.32C325.004 230.32 326.617 230.747 327.964 231.6C329.324 232.453 330.37 233.667 331.104 235.24C331.85 236.8 332.224 238.68 332.224 240.88C332.224 241.24 332.21 241.6 332.184 241.96C332.17 242.307 332.15 242.613 332.124 242.88H318.124ZM323.164 233.64C321.764 233.64 320.604 234.14 319.684 235.14C318.777 236.14 318.25 237.7 318.104 239.82H327.884C327.844 237.833 327.417 236.307 326.604 235.24C325.804 234.173 324.657 233.64 323.164 233.64Z" fill="#D8AF1F"/>
<path d="M314.404 304V282.88H318.264L318.604 285.62C319.484 284.54 320.524 283.72 321.724 283.16C322.924 282.6 324.157 282.32 325.424 282.32C327.397 282.32 328.87 282.873 329.844 283.98C330.83 285.073 331.324 286.613 331.324 288.6V304H326.844V290.82C326.844 289.593 326.77 288.607 326.624 287.86C326.477 287.113 326.184 286.573 325.744 286.24C325.317 285.907 324.677 285.74 323.824 285.74C323.144 285.74 322.497 285.887 321.884 286.18C321.27 286.473 320.71 286.86 320.204 287.34C319.697 287.807 319.257 288.307 318.884 288.84V304H314.404ZM342.868 282.88V297.64C342.868 298.893 343.115 299.787 343.608 300.32C344.115 300.853 344.875 301.12 345.888 301.12C346.848 301.12 347.775 300.833 348.668 300.26C349.561 299.687 350.268 298.987 350.788 298.16V282.88H355.268V304H351.408L351.128 301.3C350.341 302.353 349.348 303.16 348.148 303.72C346.948 304.267 345.721 304.54 344.468 304.54C342.428 304.54 340.901 303.98 339.888 302.86C338.888 301.727 338.388 300.173 338.388 298.2V282.88H342.868ZM376.933 282.32C377.733 282.32 378.453 282.493 379.093 282.84C379.733 283.187 380.233 283.793 380.593 284.66C380.966 285.527 381.153 286.74 381.153 288.3V304H377.173V288.92C377.173 287.813 377.093 287.02 376.933 286.54C376.786 286.06 376.393 285.82 375.753 285.82C375.246 285.82 374.733 285.98 374.213 286.3C373.693 286.607 373.166 287.14 372.633 287.9V304H369.013V288.92C369.013 287.813 368.933 287.02 368.773 286.54C368.626 286.06 368.233 285.82 367.593 285.82C367.073 285.82 366.553 285.98 366.033 286.3C365.526 286.607 365.006 287.14 364.473 287.9V304H360.473V282.88H363.853L364.153 285.16C364.753 284.32 365.406 283.64 366.113 283.12C366.819 282.587 367.673 282.32 368.673 282.32C369.473 282.32 370.199 282.52 370.853 282.92C371.506 283.32 371.986 284.02 372.293 285.02C372.879 284.22 373.546 283.573 374.293 283.08C375.039 282.573 375.919 282.32 376.933 282.32ZM397.897 304L389.117 280.52C389.157 280.933 389.21 281.52 389.277 282.28C389.357 283.04 389.43 283.92 389.497 284.92C389.577 285.92 389.644 286.98 389.697 288.1C389.75 289.22 389.777 290.34 389.777 291.46V304H385.657V276.4H391.677L400.477 299.9C400.41 299.34 400.324 298.52 400.217 297.44C400.124 296.347 400.03 295.08 399.937 293.64C399.857 292.187 399.817 290.633 399.817 288.98V276.4H403.937V304H397.897ZM424.481 285.1C424.481 283.833 424.235 282.82 423.741 282.06C423.261 281.3 422.575 280.747 421.681 280.4C420.801 280.053 419.761 279.88 418.561 279.88H415.241V290.62H418.621C419.781 290.62 420.801 290.447 421.681 290.1C422.561 289.753 423.248 289.18 423.741 288.38C424.235 287.58 424.481 286.487 424.481 285.1ZM429.361 285.06C429.361 287.207 428.901 288.947 427.981 290.28C427.075 291.613 425.808 292.593 424.181 293.22C422.555 293.847 420.688 294.16 418.581 294.16H415.241V304H410.601V276.4H418.261C421.728 276.4 424.441 277.113 426.401 278.54C428.375 279.953 429.361 282.127 429.361 285.06ZM439.926 279.92V288.22H449.926V291.74H439.926V300.48H452.106V304H435.286V276.4H451.886L451.366 279.92H439.926Z" fill="#27CD7D"/>
<path d="M170.698 356V352.8H173.798V338.06H170.698V334.88H177.217L178.038 339.78C178.824 338.007 179.798 336.66 180.958 335.74C182.131 334.807 183.638 334.34 185.478 334.34C186.104 334.34 186.664 334.393 187.158 334.5C187.664 334.593 188.164 334.72 188.658 334.88L187.318 338.72C186.891 338.6 186.491 338.513 186.118 338.46C185.744 338.393 185.331 338.36 184.878 338.36C183.344 338.36 182.018 338.933 180.898 340.08C179.791 341.227 178.918 342.853 178.278 344.96V352.8H182.538V356H170.698ZM184.698 342.66V337.46L185.258 334.88H188.658L187.898 342.66H184.698ZM198.202 346.88C198.295 348.32 198.602 349.5 199.122 350.42C199.642 351.327 200.322 351.993 201.162 352.42C202.015 352.847 202.949 353.06 203.962 353.06C205.002 353.06 205.962 352.9 206.842 352.58C207.722 352.26 208.609 351.807 209.502 351.22L211.442 353.9C210.455 354.7 209.302 355.34 207.982 355.82C206.662 356.3 205.249 356.54 203.742 356.54C201.555 356.54 199.702 356.073 198.182 355.14C196.675 354.207 195.529 352.907 194.742 351.24C193.955 349.573 193.562 347.647 193.562 345.46C193.562 343.34 193.949 341.447 194.722 339.78C195.495 338.1 196.602 336.773 198.042 335.8C199.482 334.813 201.202 334.32 203.202 334.32C205.082 334.32 206.695 334.747 208.042 335.6C209.402 336.453 210.449 337.667 211.182 339.24C211.929 340.8 212.302 342.68 212.302 344.88C212.302 345.24 212.289 345.6 212.262 345.96C212.249 346.307 212.229 346.613 212.202 346.88H198.202ZM203.242 337.64C201.842 337.64 200.682 338.14 199.762 339.14C198.855 340.14 198.329 341.7 198.182 343.82H207.962C207.922 341.833 207.495 340.307 206.682 339.24C205.882 338.173 204.735 337.64 203.242 337.64ZM236.106 354.88C235.333 355.373 234.406 355.773 233.326 356.08C232.246 356.387 231.12 356.54 229.946 356.54C227.493 356.54 225.626 355.907 224.346 354.64C223.08 353.36 222.446 351.68 222.446 349.6V338.14H217.746V334.88H222.446V330.16L226.926 329.62V334.88H234.046L233.546 338.14H226.926V349.56C226.926 350.693 227.206 351.54 227.766 352.1C228.34 352.647 229.273 352.92 230.566 352.92C231.34 352.92 232.053 352.827 232.706 352.64C233.36 352.453 233.953 352.213 234.486 351.92L236.106 354.88ZM246.931 334.88V349.64C246.931 350.893 247.177 351.787 247.671 352.32C248.177 352.853 248.937 353.12 249.951 353.12C250.911 353.12 251.837 352.833 252.731 352.26C253.624 351.687 254.331 350.987 254.851 350.16V334.88H259.331V356H255.471L255.191 353.3C254.404 354.353 253.411 355.16 252.211 355.72C251.011 356.267 249.784 356.54 248.531 356.54C246.491 356.54 244.964 355.98 243.951 354.86C242.951 353.727 242.451 352.173 242.451 350.2V334.88H246.931ZM266.635 356V352.8H269.735V338.06H266.635V334.88H273.155L273.975 339.78C274.762 338.007 275.735 336.66 276.895 335.74C278.068 334.807 279.575 334.34 281.415 334.34C282.042 334.34 282.602 334.393 283.095 334.5C283.602 334.593 284.102 334.72 284.595 334.88L283.255 338.72C282.828 338.6 282.428 338.513 282.055 338.46C281.682 338.393 281.268 338.36 280.815 338.36C279.282 338.36 277.955 338.933 276.835 340.08C275.728 341.227 274.855 342.853 274.215 344.96V352.8H278.475V356H266.635ZM280.635 342.66V337.46L281.195 334.88H284.595L283.835 342.66H280.635ZM290.419 356V334.88H294.279L294.619 337.62C295.499 336.54 296.539 335.72 297.739 335.16C298.939 334.6 300.173 334.32 301.439 334.32C303.413 334.32 304.886 334.873 305.859 335.98C306.846 337.073 307.339 338.613 307.339 340.6V356H302.859V342.82C302.859 341.593 302.786 340.607 302.639 339.86C302.493 339.113 302.199 338.573 301.759 338.24C301.333 337.907 300.693 337.74 299.839 337.74C299.159 337.74 298.513 337.887 297.899 338.18C297.286 338.473 296.726 338.86 296.219 339.34C295.713 339.807 295.273 340.307 294.899 340.84V356H290.419Z" fill="#9F45D7"/>
<path d="M338.848 356V334.94H341.708L341.968 337.86C342.821 336.78 343.888 335.953 345.168 335.38C346.461 334.793 347.715 334.5 348.928 334.5C350.995 334.5 352.495 335.047 353.428 336.14C354.375 337.233 354.848 338.753 354.848 340.7V356H351.488V343.18C351.488 341.74 351.408 340.58 351.248 339.7C351.088 338.807 350.755 338.16 350.248 337.76C349.741 337.347 348.955 337.14 347.888 337.14C347.061 337.14 346.281 337.32 345.548 337.68C344.828 338.04 344.181 338.493 343.608 339.04C343.048 339.573 342.581 340.113 342.208 340.66V356H338.848ZM366.193 334.94V349.86C366.193 351.247 366.479 352.247 367.053 352.86C367.626 353.473 368.519 353.78 369.733 353.78C370.893 353.78 371.986 353.453 373.013 352.8C374.053 352.133 374.859 351.347 375.433 350.44V334.94H378.793V356H375.933L375.653 353.16C374.826 354.227 373.806 355.047 372.593 355.62C371.379 356.18 370.153 356.46 368.912 356.46C366.873 356.46 365.346 355.92 364.333 354.84C363.333 353.747 362.833 352.22 362.833 350.26V334.94H366.193ZM395.017 326.46V350.8C395.017 351.84 395.337 352.58 395.977 353.02C396.63 353.447 397.47 353.66 398.497 353.66C399.137 353.66 399.744 353.593 400.317 353.46C400.89 353.327 401.464 353.147 402.037 352.92L402.937 355.38C402.364 355.66 401.65 355.907 400.797 356.12C399.957 356.347 399.004 356.46 397.937 356.46C396.07 356.46 394.557 355.947 393.397 354.92C392.237 353.88 391.657 352.447 391.657 350.62V329.12H385.197V326.46H395.017ZM419.001 326.46V350.8C419.001 351.84 419.321 352.58 419.961 353.02C420.615 353.447 421.455 353.66 422.481 353.66C423.121 353.66 423.728 353.593 424.301 353.46C424.875 353.327 425.448 353.147 426.021 352.92L426.921 355.38C426.348 355.66 425.635 355.907 424.781 356.12C423.941 356.347 422.988 356.46 421.921 356.46C420.055 356.46 418.541 355.947 417.381 354.92C416.221 353.88 415.641 352.447 415.641 350.62V329.12H409.181V326.46H419.001Z" fill="#FFFAFA"/>
</g>
</svg>
