<svg width="839" height="671" viewBox="0 0 839 671" fill="none" xmlns="http://www.w3.org/2000/svg">
<ellipse rx="363.619" ry="237.492" transform="matrix(0.953847 -0.300294 0.305003 0.952351 419.273 335.369)" fill="#9CA5AB"/>
<rect x="119.877" y="159.474" width="565.063" height="381.569" rx="23" fill="#D9D9D9"/>
<path d="M119.877 195.814H684.94V518.043C684.94 530.745 674.643 541.043 661.94 541.043H142.877C130.175 541.043 119.877 530.745 119.877 518.043V195.814Z" fill="#4B4564"/>
<ellipse cx="140.787" cy="177.709" rx="6.6298" ry="7.18339" fill="#AB0000"/>
<ellipse cx="177.506" cy="177.709" rx="6.6298" ry="7.18339" fill="#269400"/>
<ellipse cx="159.146" cy="177.709" rx="6.6298" ry="7.18339" fill="#DE5000"/>
<path d="M152.597 215.725C154.397 215.725 155.933 215.989 157.205 216.517C158.477 217.033 159.527 217.759 160.355 218.695C161.195 219.619 161.849 220.711 162.317 221.971C162.785 223.231 163.115 224.599 163.307 226.075C163.499 227.551 163.595 229.081 163.595 230.665C163.595 233.689 163.451 236.221 163.163 238.261C162.875 240.289 162.335 241.813 161.543 242.833C160.763 243.865 159.635 244.381 158.159 244.381C157.439 244.381 156.809 244.219 156.269 243.895C155.741 243.571 155.303 243.151 154.955 242.635C154.619 242.131 154.361 241.585 154.181 240.997C154.013 240.397 153.917 239.833 153.893 239.305H153.749C153.509 239.881 153.179 240.433 152.759 240.961C152.339 241.489 151.805 241.921 151.157 242.257C150.509 242.593 149.717 242.761 148.781 242.761C147.437 242.761 146.357 242.401 145.541 241.681C144.725 240.973 144.131 239.995 143.759 238.747C143.387 237.499 143.201 236.089 143.201 234.517C143.201 231.457 143.825 229.123 145.073 227.515C146.321 225.895 148.127 225.085 150.491 225.085C151.379 225.085 152.255 225.193 153.119 225.409C153.995 225.613 154.937 225.985 155.945 226.525V237.217C155.945 238.357 156.035 239.239 156.215 239.863C156.395 240.487 156.641 240.919 156.953 241.159C157.277 241.399 157.643 241.519 158.051 241.519C158.531 241.519 158.903 241.273 159.167 240.781C159.443 240.289 159.641 239.581 159.761 238.657C159.881 237.721 159.953 236.593 159.977 235.273C160.001 233.953 160.013 232.465 160.013 230.809C160.013 229.033 159.911 227.407 159.707 225.931C159.515 224.443 159.149 223.159 158.609 222.079C158.081 220.999 157.325 220.165 156.341 219.577C155.357 218.989 154.079 218.695 152.507 218.695C151.295 218.695 150.017 218.923 148.673 219.379C147.341 219.835 145.937 220.711 144.461 222.007L142.517 219.757C144.149 218.341 145.799 217.315 147.467 216.679C149.147 216.043 150.857 215.725 152.597 215.725ZM150.545 227.821C149.165 227.821 148.223 228.361 147.719 229.441C147.215 230.509 146.963 232.201 146.963 234.517C146.963 235.669 147.035 236.653 147.179 237.469C147.323 238.285 147.575 238.909 147.935 239.341C148.295 239.773 148.781 239.989 149.393 239.989C150.125 239.989 150.695 239.821 151.103 239.485C151.511 239.149 151.817 238.753 152.021 238.297C152.225 237.829 152.381 237.421 152.489 237.073V228.289C152.165 228.121 151.853 228.001 151.553 227.929C151.253 227.857 150.917 227.821 150.545 227.821ZM177.513 241.069L169.611 219.937C169.647 220.309 169.695 220.837 169.755 221.521C169.827 222.205 169.893 222.997 169.953 223.897C170.025 224.797 170.085 225.751 170.133 226.759C170.181 227.767 170.205 228.775 170.205 229.783V241.069H166.497V216.229H171.915L179.835 237.379C179.775 236.875 179.697 236.137 179.601 235.165C179.517 234.181 179.433 233.041 179.349 231.745C179.277 230.437 179.241 229.039 179.241 227.551V216.229H182.949V241.069H177.513ZM192.745 222.061V235.345C192.745 236.473 192.967 237.277 193.411 237.757C193.867 238.237 194.551 238.477 195.463 238.477C196.327 238.477 197.161 238.219 197.965 237.703C198.769 237.187 199.405 236.557 199.873 235.813V222.061H203.905V241.069H200.431L200.179 238.639C199.471 239.587 198.577 240.313 197.497 240.817C196.417 241.309 195.313 241.555 194.185 241.555C192.349 241.555 190.975 241.051 190.063 240.043C189.163 239.023 188.713 237.625 188.713 235.849V222.061H192.745ZM218.65 214.429V235.885C218.65 236.761 218.914 237.385 219.442 237.757C219.982 238.117 220.678 238.297 221.53 238.297C222.082 238.297 222.604 238.237 223.096 238.117C223.588 237.997 224.068 237.847 224.536 237.667L225.562 240.475C224.998 240.763 224.302 241.015 223.474 241.231C222.658 241.447 221.722 241.555 220.666 241.555C218.758 241.555 217.27 241.021 216.202 239.953C215.146 238.873 214.618 237.397 214.618 235.525V217.399H208.876V214.429H218.65ZM240.236 214.429V235.885C240.236 236.761 240.5 237.385 241.028 237.757C241.568 238.117 242.264 238.297 243.116 238.297C243.668 238.297 244.19 238.237 244.682 238.117C245.174 237.997 245.654 237.847 246.122 237.667L247.148 240.475C246.584 240.763 245.888 241.015 245.06 241.231C244.244 241.447 243.308 241.555 242.252 241.555C240.344 241.555 238.856 241.021 237.788 239.953C236.732 238.873 236.204 237.397 236.204 235.525V217.399H230.462V214.429H240.236ZM269.544 216.229L270.948 241.069H267.132L266.538 228.973C266.502 228.061 266.472 227.179 266.448 226.327C266.436 225.475 266.43 224.659 266.43 223.879C266.43 223.099 266.436 222.379 266.448 221.719C266.472 221.047 266.496 220.441 266.52 219.901L262.866 236.695H259.23L255.306 219.901C255.342 220.417 255.372 221.023 255.396 221.719C255.42 222.403 255.438 223.141 255.45 223.933C255.462 224.725 255.462 225.553 255.45 226.417C255.45 227.281 255.438 228.145 255.414 229.009L254.928 241.069H251.184L252.588 216.229H257.592L261.138 232.879L264.522 216.229H269.544ZM289.582 236.407C289.582 237.151 289.696 237.697 289.924 238.045C290.152 238.381 290.518 238.633 291.022 238.801L290.122 241.537C289.186 241.429 288.382 241.171 287.71 240.763C287.038 240.355 286.528 239.737 286.18 238.909C285.484 239.785 284.602 240.445 283.534 240.889C282.466 241.333 281.326 241.555 280.114 241.555C278.194 241.555 276.67 241.015 275.542 239.935C274.426 238.843 273.868 237.415 273.868 235.651C273.868 233.647 274.648 232.105 276.208 231.025C277.768 229.945 280 229.405 282.904 229.405H285.622V228.163C285.622 226.939 285.25 226.057 284.506 225.517C283.774 224.977 282.736 224.707 281.392 224.707C280.768 224.707 280.012 224.791 279.124 224.959C278.236 225.115 277.306 225.361 276.334 225.697L275.344 222.853C276.532 222.409 277.696 222.085 278.836 221.881C279.976 221.665 281.032 221.557 282.004 221.557C284.548 221.557 286.444 222.121 287.692 223.249C288.952 224.377 289.582 225.937 289.582 227.929V236.407ZM281.338 238.585C282.154 238.585 282.952 238.369 283.732 237.937C284.512 237.505 285.142 236.899 285.622 236.119V231.925H283.39C281.494 231.925 280.138 232.243 279.322 232.879C278.506 233.503 278.098 234.367 278.098 235.471C278.098 236.479 278.368 237.253 278.908 237.793C279.46 238.321 280.27 238.585 281.338 238.585ZM296.822 241.069V238.189H299.612V224.923H296.822V222.061H302.69L303.428 226.471C304.136 224.875 305.012 223.663 306.056 222.835C307.112 221.995 308.468 221.575 310.124 221.575C310.688 221.575 311.192 221.623 311.636 221.719C312.092 221.803 312.542 221.917 312.986 222.061L311.78 225.517C311.396 225.409 311.036 225.331 310.7 225.283C310.364 225.223 309.992 225.193 309.584 225.193C308.204 225.193 307.01 225.709 306.002 226.741C305.006 227.773 304.22 229.237 303.644 231.133V238.189H307.478V241.069H296.822ZM309.422 229.063V224.383L309.926 222.061H312.986L312.302 229.063H309.422ZM334.968 222.061L327.282 230.557L335.778 241.069H330.846L322.674 230.665L330.27 222.061H334.968ZM322.386 213.979V241.069H318.354V214.429L322.386 213.979ZM343.162 232.861C343.246 234.157 343.522 235.219 343.99 236.047C344.458 236.863 345.07 237.463 345.826 237.847C346.594 238.231 347.434 238.423 348.346 238.423C349.282 238.423 350.146 238.279 350.938 237.991C351.73 237.703 352.528 237.295 353.332 236.767L355.078 239.179C354.19 239.899 353.152 240.475 351.964 240.907C350.776 241.339 349.504 241.555 348.148 241.555C346.18 241.555 344.512 241.135 343.144 240.295C341.788 239.455 340.756 238.285 340.048 236.785C339.34 235.285 338.986 233.551 338.986 231.583C338.986 229.675 339.334 227.971 340.03 226.471C340.726 224.959 341.722 223.765 343.018 222.889C344.314 222.001 345.862 221.557 347.662 221.557C349.354 221.557 350.806 221.941 352.018 222.709C353.242 223.477 354.184 224.569 354.844 225.985C355.516 227.389 355.852 229.081 355.852 231.061C355.852 231.385 355.84 231.709 355.816 232.033C355.804 232.345 355.786 232.621 355.762 232.861H343.162ZM347.698 224.545C346.438 224.545 345.394 224.995 344.566 225.895C343.75 226.795 343.276 228.199 343.144 230.107H351.946C351.91 228.319 351.526 226.945 350.794 225.985C350.074 225.025 349.042 224.545 347.698 224.545ZM372.56 213.979L376.592 214.429V241.069H373.046L372.758 238.729C372.11 239.629 371.336 240.325 370.436 240.817C369.536 241.309 368.528 241.555 367.412 241.555C365.78 241.555 364.436 241.141 363.38 240.313C362.324 239.473 361.538 238.303 361.022 236.803C360.518 235.291 360.266 233.545 360.266 231.565C360.266 229.633 360.566 227.917 361.166 226.417C361.766 224.905 362.624 223.717 363.74 222.853C364.856 221.989 366.2 221.557 367.772 221.557C368.768 221.557 369.662 221.737 370.454 222.097C371.246 222.445 371.948 222.955 372.56 223.627V213.979ZM368.834 224.653C367.478 224.653 366.422 225.217 365.666 226.345C364.91 227.461 364.532 229.201 364.532 231.565C364.532 233.185 364.688 234.505 365 235.525C365.312 236.533 365.762 237.277 366.35 237.757C366.938 238.225 367.646 238.459 368.474 238.459C369.386 238.459 370.178 238.195 370.85 237.667C371.522 237.139 372.092 236.503 372.56 235.759V226.759C372.092 226.087 371.546 225.571 370.922 225.211C370.298 224.839 369.602 224.653 368.834 224.653Z" fill="#D8AF1F"/>
<path d="M154.811 268.557C156.491 268.557 157.835 268.971 158.843 269.799C159.851 270.615 160.583 271.773 161.039 273.273C161.495 274.761 161.723 276.513 161.723 278.529C161.723 280.461 161.447 282.183 160.895 283.695C160.343 285.207 159.521 286.395 158.429 287.259C157.349 288.123 156.005 288.555 154.397 288.555C152.405 288.555 150.797 287.853 149.573 286.449V295.377L145.541 295.827V269.061H149.051L149.303 271.509C150.023 270.525 150.857 269.787 151.805 269.295C152.765 268.803 153.767 268.557 154.811 268.557ZM153.695 271.671C152.795 271.671 152.003 271.941 151.319 272.481C150.635 273.021 150.053 273.657 149.573 274.389V283.281C150.029 283.965 150.569 284.493 151.193 284.865C151.829 285.225 152.543 285.405 153.335 285.405C154.691 285.405 155.723 284.859 156.431 283.767C157.139 282.675 157.493 280.935 157.493 278.547C157.493 276.927 157.349 275.613 157.061 274.605C156.785 273.585 156.365 272.841 155.801 272.373C155.249 271.905 154.547 271.671 153.695 271.671ZM171.159 269.061V282.345C171.159 283.473 171.381 284.277 171.825 284.757C172.281 285.237 172.965 285.477 173.877 285.477C174.741 285.477 175.575 285.219 176.379 284.703C177.183 284.187 177.819 283.557 178.287 282.813V269.061H182.319V288.069H178.845L178.593 285.639C177.885 286.587 176.991 287.313 175.911 287.817C174.831 288.309 173.727 288.555 172.599 288.555C170.763 288.555 169.389 288.051 168.477 287.043C167.577 286.023 167.127 284.625 167.127 282.849V269.061H171.159ZM192.745 271.329C193.405 270.465 194.173 269.787 195.049 269.295C195.937 268.803 196.909 268.557 197.965 268.557C199.633 268.557 200.983 268.971 202.015 269.799C203.059 270.615 203.821 271.773 204.301 273.273C204.793 274.761 205.039 276.513 205.039 278.529C205.039 280.461 204.751 282.183 204.175 283.695C203.599 285.207 202.747 286.395 201.619 287.259C200.503 288.123 199.123 288.555 197.479 288.555C195.355 288.555 193.687 287.769 192.475 286.197L192.259 288.069H188.713V261.429L192.745 260.979V271.329ZM196.471 285.477C197.839 285.477 198.895 284.919 199.639 283.803C200.395 282.687 200.773 280.935 200.773 278.547C200.773 276.927 200.623 275.613 200.323 274.605C200.023 273.585 199.579 272.841 198.991 272.373C198.415 271.905 197.707 271.671 196.867 271.671C195.967 271.671 195.175 271.941 194.491 272.481C193.807 273.021 193.225 273.657 192.745 274.389V283.281C193.189 283.965 193.723 284.505 194.347 284.901C194.983 285.285 195.691 285.477 196.471 285.477ZM218.65 261.429V282.885C218.65 283.761 218.914 284.385 219.442 284.757C219.982 285.117 220.678 285.297 221.53 285.297C222.082 285.297 222.604 285.237 223.096 285.117C223.588 284.997 224.068 284.847 224.536 284.667L225.562 287.475C224.998 287.763 224.302 288.015 223.474 288.231C222.658 288.447 221.722 288.555 220.666 288.555C218.758 288.555 217.27 288.021 216.202 286.953C215.146 285.873 214.618 284.397 214.618 282.525V264.399H208.876V261.429H218.65ZM242.27 269.061V285.117H247.436V288.069H232.55V285.117H238.238V272.013H232.73V269.061H242.27ZM239.462 259.755C240.254 259.755 240.89 259.995 241.37 260.475C241.862 260.955 242.108 261.555 242.108 262.275C242.108 262.995 241.862 263.601 241.37 264.093C240.89 264.585 240.254 264.831 239.462 264.831C238.694 264.831 238.064 264.585 237.572 264.093C237.08 263.601 236.834 262.995 236.834 262.275C236.834 261.555 237.08 260.955 237.572 260.475C238.064 259.995 238.694 259.755 239.462 259.755ZM262.632 285.243C263.52 285.243 264.348 285.093 265.116 284.793C265.884 284.481 266.616 284.079 267.312 283.587L269.184 286.179C268.356 286.887 267.348 287.463 266.16 287.907C264.984 288.339 263.766 288.555 262.506 288.555C260.562 288.555 258.9 288.147 257.52 287.331C256.14 286.503 255.084 285.345 254.352 283.857C253.62 282.369 253.254 280.635 253.254 278.655C253.254 276.723 253.62 275.001 254.352 273.489C255.096 271.965 256.164 270.765 257.556 269.889C258.948 269.001 260.622 268.557 262.578 268.557C263.874 268.557 265.068 268.749 266.16 269.133C267.252 269.517 268.254 270.087 269.166 270.843L267.312 273.381C266.568 272.865 265.806 272.475 265.026 272.211C264.258 271.935 263.466 271.797 262.65 271.797C261.15 271.797 259.92 272.349 258.96 273.453C258.012 274.557 257.538 276.291 257.538 278.655C257.538 280.239 257.754 281.517 258.186 282.489C258.63 283.449 259.236 284.151 260.004 284.595C260.772 285.027 261.648 285.243 262.632 285.243ZM305.804 285.243C306.692 285.243 307.52 285.093 308.288 284.793C309.056 284.481 309.788 284.079 310.484 283.587L312.356 286.179C311.528 286.887 310.52 287.463 309.332 287.907C308.156 288.339 306.938 288.555 305.678 288.555C303.734 288.555 302.072 288.147 300.692 287.331C299.312 286.503 298.256 285.345 297.524 283.857C296.792 282.369 296.426 280.635 296.426 278.655C296.426 276.723 296.792 275.001 297.524 273.489C298.268 271.965 299.336 270.765 300.728 269.889C302.12 269.001 303.794 268.557 305.75 268.557C307.046 268.557 308.24 268.749 309.332 269.133C310.424 269.517 311.426 270.087 312.338 270.843L310.484 273.381C309.74 272.865 308.978 272.475 308.198 272.211C307.43 271.935 306.638 271.797 305.822 271.797C304.322 271.797 303.092 272.349 302.132 273.453C301.184 274.557 300.71 276.291 300.71 278.655C300.71 280.239 300.926 281.517 301.358 282.489C301.802 283.449 302.408 284.151 303.176 284.595C303.944 285.027 304.82 285.243 305.804 285.243ZM326.58 261.429V282.885C326.58 283.761 326.844 284.385 327.372 284.757C327.912 285.117 328.608 285.297 329.46 285.297C330.012 285.297 330.534 285.237 331.026 285.117C331.518 284.997 331.998 284.847 332.466 284.667L333.492 287.475C332.928 287.763 332.232 288.015 331.404 288.231C330.588 288.447 329.652 288.555 328.596 288.555C326.688 288.555 325.2 288.021 324.132 286.953C323.076 285.873 322.548 284.397 322.548 282.525V264.399H316.806V261.429H326.58ZM354.34 283.407C354.34 284.151 354.454 284.697 354.682 285.045C354.91 285.381 355.276 285.633 355.78 285.801L354.88 288.537C353.944 288.429 353.14 288.171 352.468 287.763C351.796 287.355 351.286 286.737 350.938 285.909C350.242 286.785 349.36 287.445 348.292 287.889C347.224 288.333 346.084 288.555 344.872 288.555C342.952 288.555 341.428 288.015 340.3 286.935C339.184 285.843 338.626 284.415 338.626 282.651C338.626 280.647 339.406 279.105 340.966 278.025C342.526 276.945 344.758 276.405 347.662 276.405H350.38V275.163C350.38 273.939 350.008 273.057 349.264 272.517C348.532 271.977 347.494 271.707 346.15 271.707C345.526 271.707 344.77 271.791 343.882 271.959C342.994 272.115 342.064 272.361 341.092 272.697L340.102 269.853C341.29 269.409 342.454 269.085 343.594 268.881C344.734 268.665 345.79 268.557 346.762 268.557C349.306 268.557 351.202 269.121 352.45 270.249C353.71 271.377 354.34 272.937 354.34 274.929V283.407ZM346.096 285.585C346.912 285.585 347.71 285.369 348.49 284.937C349.27 284.505 349.9 283.899 350.38 283.119V278.925H348.148C346.252 278.925 344.896 279.243 344.08 279.879C343.264 280.503 342.856 281.367 342.856 282.471C342.856 283.479 343.126 284.253 343.666 284.793C344.218 285.321 345.028 285.585 346.096 285.585ZM368.312 285.459C369.572 285.459 370.574 285.237 371.318 284.793C372.062 284.337 372.434 283.713 372.434 282.921C372.434 282.405 372.326 281.967 372.11 281.607C371.894 281.235 371.462 280.899 370.814 280.599C370.166 280.287 369.182 279.963 367.862 279.627C366.614 279.303 365.516 278.919 364.568 278.475C363.632 278.031 362.906 277.455 362.39 276.747C361.874 276.039 361.616 275.127 361.616 274.011C361.616 272.919 361.922 271.965 362.534 271.149C363.146 270.333 364.022 269.697 365.162 269.241C366.314 268.785 367.664 268.557 369.212 268.557C370.808 268.557 372.2 268.767 373.388 269.187C374.576 269.607 375.59 270.129 376.43 270.753L374.738 273.291C373.994 272.799 373.178 272.397 372.29 272.085C371.414 271.773 370.424 271.617 369.32 271.617C368.036 271.617 367.112 271.809 366.548 272.193C365.996 272.577 365.72 273.087 365.72 273.723C365.72 274.191 365.858 274.587 366.134 274.911C366.422 275.223 366.914 275.517 367.61 275.793C368.306 276.057 369.29 276.369 370.562 276.729C371.798 277.065 372.872 277.461 373.784 277.917C374.708 278.373 375.422 278.979 375.926 279.735C376.442 280.479 376.7 281.451 376.7 282.651C376.7 284.019 376.304 285.141 375.512 286.017C374.732 286.881 373.7 287.523 372.416 287.943C371.144 288.351 369.776 288.555 368.312 288.555C366.548 288.555 365.024 288.303 363.74 287.799C362.456 287.283 361.376 286.641 360.5 285.873L362.642 283.425C363.386 284.025 364.238 284.517 365.198 284.901C366.158 285.273 367.196 285.459 368.312 285.459ZM389.898 285.459C391.158 285.459 392.16 285.237 392.904 284.793C393.648 284.337 394.02 283.713 394.02 282.921C394.02 282.405 393.912 281.967 393.696 281.607C393.48 281.235 393.048 280.899 392.4 280.599C391.752 280.287 390.768 279.963 389.448 279.627C388.2 279.303 387.102 278.919 386.154 278.475C385.218 278.031 384.492 277.455 383.976 276.747C383.46 276.039 383.202 275.127 383.202 274.011C383.202 272.919 383.508 271.965 384.12 271.149C384.732 270.333 385.608 269.697 386.748 269.241C387.9 268.785 389.25 268.557 390.798 268.557C392.394 268.557 393.786 268.767 394.974 269.187C396.162 269.607 397.176 270.129 398.016 270.753L396.324 273.291C395.58 272.799 394.764 272.397 393.876 272.085C393 271.773 392.01 271.617 390.906 271.617C389.622 271.617 388.698 271.809 388.134 272.193C387.582 272.577 387.306 273.087 387.306 273.723C387.306 274.191 387.444 274.587 387.72 274.911C388.008 275.223 388.5 275.517 389.196 275.793C389.892 276.057 390.876 276.369 392.148 276.729C393.384 277.065 394.458 277.461 395.37 277.917C396.294 278.373 397.008 278.979 397.512 279.735C398.028 280.479 398.286 281.451 398.286 282.651C398.286 284.019 397.89 285.141 397.098 286.017C396.318 286.881 395.286 287.523 394.002 287.943C392.73 288.351 391.362 288.555 389.898 288.555C388.134 288.555 386.61 288.303 385.326 287.799C384.042 287.283 382.962 286.641 382.086 285.873L384.228 283.425C384.972 284.025 385.824 284.517 386.784 284.901C387.744 285.273 388.782 285.459 389.898 285.459Z" fill="#9F45D7"/>
<path d="M633.679 257.937V260.907C632.863 260.907 632.131 260.985 631.483 261.141C630.847 261.297 630.355 261.567 630.007 261.951C629.671 262.335 629.539 262.869 629.611 263.553L630.277 270.159C630.397 271.287 630.301 272.217 629.989 272.949C629.689 273.669 629.203 274.227 628.531 274.623C627.859 275.019 627.037 275.301 626.065 275.469C627.073 275.637 627.913 275.913 628.585 276.297C629.257 276.669 629.737 277.215 630.025 277.935C630.313 278.655 630.397 279.603 630.277 280.779L629.611 287.385C629.539 288.069 629.671 288.603 630.007 288.987C630.355 289.383 630.847 289.653 631.483 289.797C632.131 289.953 632.863 290.031 633.679 290.031V293.001C632.431 293.001 631.297 292.899 630.277 292.695C629.269 292.503 628.411 292.179 627.703 291.723C627.007 291.267 626.497 290.649 626.173 289.869C625.861 289.101 625.765 288.147 625.885 287.007L626.551 280.797C626.635 279.945 626.521 279.249 626.209 278.709C625.909 278.157 625.363 277.749 624.571 277.485C623.779 277.221 622.687 277.089 621.295 277.089V273.849C622.675 273.849 623.761 273.723 624.553 273.471C625.357 273.207 625.909 272.805 626.209 272.265C626.521 271.713 626.635 271.011 626.551 270.159L625.885 263.949C625.765 262.797 625.861 261.831 626.173 261.051C626.497 260.271 627.007 259.659 627.703 259.215C628.411 258.759 629.269 258.435 630.277 258.243C631.297 258.039 632.431 257.937 633.679 257.937ZM203.779 357.229V360.415H198.415V378.865H203.779V382.069H188.839V378.865H194.203V360.415H188.839V357.229H203.779ZM210.298 382.069V363.061H213.772L214.078 365.527C214.87 364.555 215.806 363.817 216.886 363.313C217.966 362.809 219.076 362.557 220.216 362.557C221.992 362.557 223.318 363.055 224.194 364.051C225.082 365.035 225.526 366.421 225.526 368.209V382.069H221.494V370.207C221.494 369.103 221.428 368.215 221.296 367.543C221.164 366.871 220.9 366.385 220.504 366.085C220.12 365.785 219.544 365.635 218.776 365.635C218.164 365.635 217.582 365.767 217.03 366.031C216.478 366.295 215.974 366.643 215.518 367.075C215.062 367.495 214.666 367.945 214.33 368.425V382.069H210.298ZM247.76 381.061C247.064 381.505 246.23 381.865 245.258 382.141C244.286 382.417 243.272 382.555 242.216 382.555C240.008 382.555 238.328 381.985 237.176 380.845C236.036 379.693 235.466 378.181 235.466 376.309V365.995H231.236V363.061H235.466V358.813L239.498 358.327V363.061H245.906L245.456 365.995H239.498V376.273C239.498 377.293 239.75 378.055 240.254 378.559C240.77 379.051 241.61 379.297 242.774 379.297C243.47 379.297 244.112 379.213 244.7 379.045C245.288 378.877 245.822 378.661 246.302 378.397L247.76 381.061ZM256.818 373.861C256.902 375.157 257.178 376.219 257.646 377.047C258.114 377.863 258.726 378.463 259.482 378.847C260.25 379.231 261.09 379.423 262.002 379.423C262.938 379.423 263.802 379.279 264.594 378.991C265.386 378.703 266.184 378.295 266.988 377.767L268.734 380.179C267.846 380.899 266.808 381.475 265.62 381.907C264.432 382.339 263.16 382.555 261.804 382.555C259.836 382.555 258.168 382.135 256.8 381.295C255.444 380.455 254.412 379.285 253.704 377.785C252.996 376.285 252.642 374.551 252.642 372.583C252.642 370.675 252.99 368.971 253.686 367.471C254.382 365.959 255.378 364.765 256.674 363.889C257.97 363.001 259.518 362.557 261.318 362.557C263.01 362.557 264.462 362.941 265.674 363.709C266.898 364.477 267.84 365.569 268.5 366.985C269.172 368.389 269.508 370.081 269.508 372.061C269.508 372.385 269.496 372.709 269.472 373.033C269.46 373.345 269.442 373.621 269.418 373.861H256.818ZM261.354 365.545C260.094 365.545 259.05 365.995 258.222 366.895C257.406 367.795 256.932 369.199 256.8 371.107H265.602C265.566 369.319 265.182 367.945 264.45 366.985C263.73 366.025 262.698 365.545 261.354 365.545ZM291.058 360.649L292.138 363.997C291.382 364.249 290.548 364.417 289.636 364.501C288.736 364.585 287.728 364.627 286.612 364.627C287.752 365.131 288.61 365.779 289.186 366.571C289.762 367.351 290.05 368.311 290.05 369.451C290.05 370.687 289.75 371.791 289.15 372.763C288.55 373.735 287.692 374.497 286.576 375.049C285.46 375.601 284.122 375.877 282.562 375.877C282.01 375.877 281.53 375.853 281.122 375.805C280.726 375.757 280.336 375.679 279.952 375.571C279.712 375.739 279.508 375.967 279.34 376.255C279.184 376.531 279.106 376.825 279.106 377.137C279.106 377.521 279.262 377.857 279.574 378.145C279.898 378.421 280.534 378.559 281.482 378.559H284.794C286.15 378.559 287.344 378.793 288.376 379.261C289.42 379.717 290.236 380.347 290.824 381.151C291.424 381.943 291.724 382.843 291.724 383.851C291.724 385.747 290.908 387.217 289.276 388.261C287.644 389.305 285.292 389.827 282.22 389.827C280.048 389.827 278.344 389.605 277.108 389.161C275.872 388.717 275.002 388.057 274.498 387.181C273.994 386.305 273.742 385.231 273.742 383.959H277.36C277.36 384.619 277.486 385.165 277.738 385.597C278.002 386.029 278.488 386.353 279.196 386.569C279.904 386.785 280.924 386.893 282.256 386.893C283.588 386.893 284.644 386.779 285.424 386.551C286.216 386.335 286.786 386.017 287.134 385.597C287.494 385.189 287.674 384.697 287.674 384.121C287.674 383.353 287.338 382.759 286.666 382.339C285.994 381.919 285.094 381.709 283.966 381.709H280.708C278.908 381.709 277.588 381.343 276.748 380.611C275.92 379.879 275.506 379.027 275.506 378.055C275.506 377.407 275.686 376.783 276.046 376.183C276.418 375.583 276.946 375.061 277.63 374.617C276.49 374.017 275.656 373.291 275.128 372.439C274.612 371.575 274.354 370.531 274.354 369.307C274.354 367.963 274.69 366.787 275.362 365.779C276.034 364.771 276.964 363.985 278.152 363.421C279.352 362.857 280.732 362.575 282.292 362.575C283.816 362.575 285.088 362.497 286.108 362.341C287.128 362.173 288.016 361.939 288.772 361.639C289.54 361.339 290.302 361.009 291.058 360.649ZM282.328 365.347C281.044 365.347 280.078 365.713 279.43 366.445C278.782 367.165 278.458 368.107 278.458 369.271C278.458 370.471 278.788 371.437 279.448 372.169C280.12 372.889 281.098 373.249 282.382 373.249C283.57 373.249 284.476 372.901 285.1 372.205C285.736 371.509 286.054 370.519 286.054 369.235C286.054 367.939 285.742 366.967 285.118 366.319C284.494 365.671 283.564 365.347 282.328 365.347ZM299.99 373.861C300.074 375.157 300.35 376.219 300.818 377.047C301.286 377.863 301.898 378.463 302.654 378.847C303.422 379.231 304.262 379.423 305.174 379.423C306.11 379.423 306.974 379.279 307.766 378.991C308.558 378.703 309.356 378.295 310.16 377.767L311.906 380.179C311.018 380.899 309.98 381.475 308.792 381.907C307.604 382.339 306.332 382.555 304.976 382.555C303.008 382.555 301.34 382.135 299.972 381.295C298.616 380.455 297.584 379.285 296.876 377.785C296.168 376.285 295.814 374.551 295.814 372.583C295.814 370.675 296.162 368.971 296.858 367.471C297.554 365.959 298.55 364.765 299.846 363.889C301.142 363.001 302.69 362.557 304.49 362.557C306.182 362.557 307.634 362.941 308.846 363.709C310.07 364.477 311.012 365.569 311.672 366.985C312.344 368.389 312.68 370.081 312.68 372.061C312.68 372.385 312.668 372.709 312.644 373.033C312.632 373.345 312.614 373.621 312.59 373.861H299.99ZM304.526 365.545C303.266 365.545 302.222 365.995 301.394 366.895C300.578 367.795 300.104 369.199 299.972 371.107H308.774C308.738 369.319 308.354 367.945 307.622 366.985C306.902 366.025 305.87 365.545 304.526 365.545ZM318.408 382.069V379.189H321.198V365.923H318.408V363.061H324.276L325.014 367.471C325.722 365.875 326.598 364.663 327.642 363.835C328.698 362.995 330.054 362.575 331.71 362.575C332.274 362.575 332.778 362.623 333.222 362.719C333.678 362.803 334.128 362.917 334.572 363.061L333.366 366.517C332.982 366.409 332.622 366.331 332.286 366.283C331.95 366.223 331.578 366.193 331.17 366.193C329.79 366.193 328.596 366.709 327.588 367.741C326.592 368.773 325.806 370.237 325.23 372.133V379.189H329.064V382.069H318.408ZM331.008 370.063V365.383L331.512 363.061H334.572L333.888 370.063H331.008ZM496.028 369.469C496.028 371.197 496.166 372.763 496.442 374.167C496.73 375.559 497.174 376.861 497.774 378.073C498.374 379.273 499.136 380.449 500.06 381.601C500.996 382.753 502.106 383.947 503.39 385.183L501.158 387.343C499.226 385.735 497.564 384.067 496.172 382.339C494.792 380.623 493.73 378.721 492.986 376.633C492.242 374.545 491.87 372.157 491.87 369.469C491.87 366.769 492.242 364.375 492.986 362.287C493.73 360.199 494.792 358.297 496.172 356.581C497.564 354.853 499.226 353.191 501.158 351.595L503.39 353.755C502.13 354.967 501.032 356.149 500.096 357.301C499.172 358.441 498.404 359.617 497.792 360.829C497.192 362.041 496.748 363.349 496.46 364.753C496.172 366.157 496.028 367.729 496.028 369.469ZM522.582 369.469C522.582 367.729 522.438 366.157 522.15 364.753C521.862 363.349 521.412 362.041 520.8 360.829C520.2 359.617 519.432 358.441 518.496 357.301C517.572 356.149 516.48 354.967 515.22 353.755L517.452 351.595C519.384 353.191 521.04 354.853 522.42 356.581C523.812 358.297 524.88 360.199 525.624 362.287C526.368 364.375 526.74 366.769 526.74 369.469C526.74 372.157 526.368 374.545 525.624 376.633C524.88 378.721 523.812 380.623 522.42 382.339C521.04 384.067 519.384 385.735 517.452 387.343L515.22 385.183C516.504 383.947 517.608 382.753 518.532 381.601C519.468 380.449 520.236 379.273 520.836 378.073C521.436 376.861 521.874 375.559 522.15 374.167C522.438 372.763 522.582 371.197 522.582 369.469ZM568.921 351.937V354.907C568.105 354.907 567.373 354.985 566.725 355.141C566.089 355.297 565.597 355.567 565.249 355.951C564.913 356.335 564.781 356.869 564.853 357.553L565.519 364.159C565.639 365.287 565.543 366.217 565.231 366.949C564.931 367.669 564.445 368.227 563.773 368.623C563.101 369.019 562.279 369.301 561.307 369.469C562.315 369.637 563.155 369.913 563.827 370.297C564.499 370.669 564.979 371.215 565.267 371.935C565.555 372.655 565.639 373.603 565.519 374.779L564.853 381.385C564.781 382.069 564.913 382.603 565.249 382.987C565.597 383.383 566.089 383.653 566.725 383.797C567.373 383.953 568.105 384.031 568.921 384.031V387.001C567.673 387.001 566.539 386.899 565.519 386.695C564.511 386.503 563.653 386.179 562.945 385.723C562.249 385.267 561.739 384.649 561.415 383.869C561.103 383.101 561.007 382.147 561.127 381.007L561.793 374.797C561.877 373.945 561.763 373.249 561.451 372.709C561.151 372.157 560.605 371.749 559.813 371.485C559.021 371.221 557.929 371.089 556.537 371.089V367.849C557.917 367.849 559.003 367.723 559.795 367.471C560.599 367.207 561.151 366.805 561.451 366.265C561.763 365.713 561.877 365.011 561.793 364.159L561.127 357.949C561.007 356.797 561.103 355.831 561.415 355.051C561.739 354.271 562.249 353.659 562.945 353.215C563.653 352.759 564.511 352.435 565.519 352.243C566.539 352.039 567.673 351.937 568.921 351.937ZM476.908 422.679C477.832 422.679 478.6 422.991 479.212 423.615C479.836 424.239 480.148 425.001 480.148 425.901C480.148 426.417 480.064 426.951 479.896 427.503C479.74 428.043 479.488 428.703 479.14 429.483L476.386 435.783H473.29L475.018 428.565C474.118 427.941 473.668 427.047 473.668 425.883C473.668 424.983 473.98 424.227 474.604 423.615C475.228 422.991 475.996 422.679 476.908 422.679ZM476.908 410.295C477.832 410.295 478.6 410.613 479.212 411.249C479.836 411.873 480.148 412.629 480.148 413.517C480.148 414.405 479.836 415.173 479.212 415.821C478.6 416.457 477.832 416.775 476.908 416.775C475.996 416.775 475.228 416.457 474.604 415.821C473.98 415.173 473.668 414.405 473.668 413.517C473.668 412.929 473.812 412.389 474.1 411.897C474.388 411.405 474.778 411.015 475.27 410.727C475.762 410.439 476.308 410.295 476.908 410.295ZM190.657 445.937C191.905 445.937 193.033 446.039 194.041 446.243C195.061 446.435 195.919 446.759 196.615 447.215C197.323 447.671 197.839 448.289 198.163 449.069C198.487 449.837 198.583 450.791 198.451 451.931L197.785 458.159C197.701 459.011 197.827 459.713 198.163 460.265C198.511 460.805 199.087 461.207 199.891 461.471C200.695 461.723 201.745 461.849 203.041 461.849V465.089C201.745 465.089 200.695 465.221 199.891 465.485C199.087 465.749 198.511 466.157 198.163 466.709C197.827 467.249 197.701 467.945 197.785 468.797L198.451 474.989C198.571 476.141 198.469 477.107 198.145 477.887C197.833 478.667 197.323 479.279 196.615 479.723C195.919 480.179 195.061 480.503 194.041 480.695C193.033 480.899 191.905 481.001 190.657 481.001V478.031C191.473 478.031 192.199 477.953 192.835 477.797C193.483 477.653 193.975 477.383 194.311 476.987C194.659 476.603 194.797 476.069 194.725 475.385L194.059 468.779C193.939 467.603 194.029 466.655 194.329 465.935C194.641 465.215 195.151 464.669 195.859 464.297C196.567 463.913 197.455 463.643 198.523 463.487C197.455 463.319 196.567 463.037 195.859 462.641C195.151 462.233 194.641 461.669 194.329 460.949C194.029 460.229 193.939 459.299 194.059 458.159L194.725 451.553C194.797 450.869 194.659 450.335 194.311 449.951C193.975 449.567 193.489 449.297 192.853 449.141C192.217 448.985 191.485 448.907 190.657 448.907V445.937ZM147.485 492.937C148.733 492.937 149.861 493.039 150.869 493.243C151.889 493.435 152.747 493.759 153.443 494.215C154.151 494.671 154.667 495.289 154.991 496.069C155.315 496.837 155.411 497.791 155.279 498.931L154.613 505.159C154.529 506.011 154.655 506.713 154.991 507.265C155.339 507.805 155.915 508.207 156.719 508.471C157.523 508.723 158.573 508.849 159.869 508.849V512.089C158.573 512.089 157.523 512.221 156.719 512.485C155.915 512.749 155.339 513.157 154.991 513.709C154.655 514.249 154.529 514.945 154.613 515.797L155.279 521.989C155.399 523.141 155.297 524.107 154.973 524.887C154.661 525.667 154.151 526.279 153.443 526.723C152.747 527.179 151.889 527.503 150.869 527.695C149.861 527.899 148.733 528.001 147.485 528.001V525.031C148.301 525.031 149.027 524.953 149.663 524.797C150.311 524.653 150.803 524.383 151.139 523.987C151.487 523.603 151.625 523.069 151.553 522.385L150.887 515.779C150.767 514.603 150.857 513.655 151.157 512.935C151.469 512.215 151.979 511.669 152.687 511.297C153.395 510.913 154.283 510.643 155.351 510.487C154.283 510.319 153.395 510.037 152.687 509.641C151.979 509.233 151.469 508.669 151.157 507.949C150.857 507.229 150.767 506.299 150.887 505.159L151.553 498.553C151.625 497.869 151.487 497.335 151.139 496.951C150.803 496.567 150.317 496.297 149.681 496.141C149.045 495.985 148.313 495.907 147.485 495.907V492.937Z" fill="#F7F7F7"/>
<path d="M441.242 263.229V279.555C441.242 280.743 441.074 281.877 440.738 282.957C440.402 284.037 439.868 284.997 439.136 285.837C438.416 286.665 437.48 287.325 436.328 287.817C435.188 288.297 433.808 288.537 432.188 288.537C430.82 288.537 429.554 288.339 428.39 287.943C427.226 287.547 426.134 286.983 425.114 286.251L426.824 283.587C427.808 284.235 428.714 284.673 429.542 284.901C430.382 285.129 431.21 285.243 432.026 285.243C433.586 285.243 434.816 284.745 435.716 283.749C436.628 282.753 437.084 281.325 437.084 279.465V266.433H429.614V263.229H441.242ZM464.286 281.049C464.286 282.513 463.908 283.815 463.152 284.955C462.408 286.083 461.328 286.965 459.912 287.601C458.508 288.237 456.81 288.555 454.818 288.555C452.802 288.555 451.032 288.255 449.508 287.655C447.996 287.043 446.718 286.233 445.674 285.225L447.96 282.669C448.848 283.473 449.85 284.109 450.966 284.577C452.082 285.033 453.36 285.261 454.8 285.261C455.736 285.261 456.594 285.117 457.374 284.829C458.154 284.529 458.778 284.085 459.246 283.497C459.714 282.897 459.948 282.147 459.948 281.247C459.948 280.515 459.798 279.897 459.498 279.393C459.198 278.889 458.676 278.433 457.932 278.025C457.2 277.617 456.174 277.221 454.854 276.837C453.102 276.309 451.632 275.721 450.444 275.073C449.256 274.425 448.356 273.651 447.744 272.751C447.144 271.839 446.844 270.735 446.844 269.439C446.844 268.095 447.21 266.919 447.942 265.911C448.686 264.903 449.7 264.123 450.984 263.571C452.28 263.007 453.744 262.725 455.376 262.725C457.176 262.725 458.748 262.983 460.092 263.499C461.436 264.015 462.636 264.753 463.692 265.713L461.496 268.197C460.62 267.429 459.678 266.871 458.67 266.523C457.674 266.175 456.66 266.001 455.628 266.001C454.788 266.001 454.026 266.121 453.342 266.361C452.658 266.601 452.118 266.955 451.722 267.423C451.326 267.891 451.128 268.485 451.128 269.205C451.128 269.841 451.302 270.387 451.65 270.843C452.01 271.299 452.61 271.725 453.45 272.121C454.302 272.505 455.466 272.919 456.942 273.363C458.334 273.771 459.582 274.275 460.686 274.875C461.802 275.475 462.678 276.261 463.314 277.233C463.962 278.205 464.286 279.477 464.286 281.049ZM478.6 268.557C480.28 268.557 481.624 268.971 482.632 269.799C483.64 270.615 484.372 271.773 484.828 273.273C485.284 274.761 485.512 276.513 485.512 278.529C485.512 280.461 485.236 282.183 484.684 283.695C484.132 285.207 483.31 286.395 482.218 287.259C481.138 288.123 479.794 288.555 478.186 288.555C476.194 288.555 474.586 287.853 473.362 286.449V295.377L469.33 295.827V269.061H472.84L473.092 271.509C473.812 270.525 474.646 269.787 475.594 269.295C476.554 268.803 477.556 268.557 478.6 268.557ZM477.484 271.671C476.584 271.671 475.792 271.941 475.108 272.481C474.424 273.021 473.842 273.657 473.362 274.389V283.281C473.818 283.965 474.358 284.493 474.982 284.865C475.618 285.225 476.332 285.405 477.124 285.405C478.48 285.405 479.512 284.859 480.22 283.767C480.928 282.675 481.282 280.935 481.282 278.547C481.282 276.927 481.138 275.613 480.85 274.605C480.574 273.585 480.154 272.841 479.59 272.373C479.038 271.905 478.336 271.671 477.484 271.671ZM494.264 279.861C494.348 281.157 494.624 282.219 495.092 283.047C495.56 283.863 496.172 284.463 496.928 284.847C497.696 285.231 498.536 285.423 499.448 285.423C500.384 285.423 501.248 285.279 502.04 284.991C502.832 284.703 503.63 284.295 504.434 283.767L506.18 286.179C505.292 286.899 504.254 287.475 503.066 287.907C501.878 288.339 500.606 288.555 499.25 288.555C497.282 288.555 495.614 288.135 494.246 287.295C492.89 286.455 491.858 285.285 491.15 283.785C490.442 282.285 490.088 280.551 490.088 278.583C490.088 276.675 490.436 274.971 491.132 273.471C491.828 271.959 492.824 270.765 494.12 269.889C495.416 269.001 496.964 268.557 498.764 268.557C500.456 268.557 501.908 268.941 503.12 269.709C504.344 270.477 505.286 271.569 505.946 272.985C506.618 274.389 506.954 276.081 506.954 278.061C506.954 278.385 506.942 278.709 506.918 279.033C506.906 279.345 506.888 279.621 506.864 279.861H494.264ZM498.8 271.545C497.54 271.545 496.496 271.995 495.668 272.895C494.852 273.795 494.378 275.199 494.246 277.107H503.048C503.012 275.319 502.628 273.945 501.896 272.985C501.176 272.025 500.144 271.545 498.8 271.545ZM521.664 285.243C522.552 285.243 523.38 285.093 524.148 284.793C524.916 284.481 525.648 284.079 526.344 283.587L528.216 286.179C527.388 286.887 526.38 287.463 525.192 287.907C524.016 288.339 522.798 288.555 521.538 288.555C519.594 288.555 517.932 288.147 516.552 287.331C515.172 286.503 514.116 285.345 513.384 283.857C512.652 282.369 512.286 280.635 512.286 278.655C512.286 276.723 512.652 275.001 513.384 273.489C514.128 271.965 515.196 270.765 516.588 269.889C517.98 269.001 519.654 268.557 521.61 268.557C522.906 268.557 524.1 268.749 525.192 269.133C526.284 269.517 527.286 270.087 528.198 270.843L526.344 273.381C525.6 272.865 524.838 272.475 524.058 272.211C523.29 271.935 522.498 271.797 521.682 271.797C520.182 271.797 518.952 272.349 517.992 273.453C517.044 274.557 516.57 276.291 516.57 278.655C516.57 280.239 516.786 281.517 517.218 282.489C517.662 283.449 518.268 284.151 519.036 284.595C519.804 285.027 520.68 285.243 521.664 285.243ZM544.474 269.061V285.117H549.64V288.069H534.754V285.117H540.442V272.013H534.934V269.061H544.474ZM541.666 259.755C542.458 259.755 543.094 259.995 543.574 260.475C544.066 260.955 544.312 261.555 544.312 262.275C544.312 262.995 544.066 263.601 543.574 264.093C543.094 264.585 542.458 264.831 541.666 264.831C540.898 264.831 540.268 264.585 539.776 264.093C539.284 263.601 539.038 262.995 539.038 262.275C539.038 261.555 539.284 260.955 539.776 260.475C540.268 259.995 540.898 259.755 541.666 259.755ZM567.229 260.979C568.393 260.979 569.431 261.081 570.343 261.285C571.267 261.477 572.119 261.741 572.899 262.077L571.711 264.867C571.075 264.603 570.409 264.411 569.713 264.291C569.029 264.171 568.333 264.111 567.625 264.111C566.377 264.111 565.453 264.351 564.853 264.831C564.253 265.299 563.953 266.043 563.953 267.063V270.429H570.307L569.875 273.399H563.953V288.069H559.939V273.399H555.619V270.429H559.939V267.027C559.939 265.827 560.239 264.777 560.839 263.877C561.451 262.965 562.303 262.257 563.395 261.753C564.487 261.237 565.765 260.979 567.229 260.979ZM593.891 269.061L587.339 288.141C586.847 289.581 586.217 290.847 585.449 291.939C584.681 293.043 583.697 293.931 582.497 294.603C581.297 295.275 579.809 295.689 578.033 295.845L577.511 292.821C578.795 292.617 579.815 292.317 580.571 291.921C581.339 291.537 581.945 291.027 582.389 290.391C582.845 289.755 583.247 288.981 583.595 288.069H582.227L575.819 269.061H580.103L584.891 285.261L589.751 269.061H593.891Z" fill="#EEEEEE"/>
<path d="M195.769 309.725C197.569 309.725 199.105 309.989 200.377 310.517C201.649 311.033 202.699 311.759 203.527 312.695C204.367 313.619 205.021 314.711 205.489 315.971C205.957 317.231 206.287 318.599 206.479 320.075C206.671 321.551 206.767 323.081 206.767 324.665C206.767 327.689 206.623 330.221 206.335 332.261C206.047 334.289 205.507 335.813 204.715 336.833C203.935 337.865 202.807 338.381 201.331 338.381C200.611 338.381 199.981 338.219 199.441 337.895C198.913 337.571 198.475 337.151 198.127 336.635C197.791 336.131 197.533 335.585 197.353 334.997C197.185 334.397 197.089 333.833 197.065 333.305H196.921C196.681 333.881 196.351 334.433 195.931 334.961C195.511 335.489 194.977 335.921 194.329 336.257C193.681 336.593 192.889 336.761 191.953 336.761C190.609 336.761 189.529 336.401 188.713 335.681C187.897 334.973 187.303 333.995 186.931 332.747C186.559 331.499 186.373 330.089 186.373 328.517C186.373 325.457 186.997 323.123 188.245 321.515C189.493 319.895 191.299 319.085 193.663 319.085C194.551 319.085 195.427 319.193 196.291 319.409C197.167 319.613 198.109 319.985 199.117 320.525V331.217C199.117 332.357 199.207 333.239 199.387 333.863C199.567 334.487 199.813 334.919 200.125 335.159C200.449 335.399 200.815 335.519 201.223 335.519C201.703 335.519 202.075 335.273 202.339 334.781C202.615 334.289 202.813 333.581 202.933 332.657C203.053 331.721 203.125 330.593 203.149 329.273C203.173 327.953 203.185 326.465 203.185 324.809C203.185 323.033 203.083 321.407 202.879 319.931C202.687 318.443 202.321 317.159 201.781 316.079C201.253 314.999 200.497 314.165 199.513 313.577C198.529 312.989 197.251 312.695 195.679 312.695C194.467 312.695 193.189 312.923 191.845 313.379C190.513 313.835 189.109 314.711 187.633 316.007L185.689 313.757C187.321 312.341 188.971 311.315 190.639 310.679C192.319 310.043 194.029 309.725 195.769 309.725ZM193.717 321.821C192.337 321.821 191.395 322.361 190.891 323.441C190.387 324.509 190.135 326.201 190.135 328.517C190.135 329.669 190.207 330.653 190.351 331.469C190.495 332.285 190.747 332.909 191.107 333.341C191.467 333.773 191.953 333.989 192.565 333.989C193.297 333.989 193.867 333.821 194.275 333.485C194.683 333.149 194.989 332.753 195.193 332.297C195.397 331.829 195.553 331.421 195.661 331.073V322.289C195.337 322.121 195.025 322.001 194.725 321.929C194.425 321.857 194.089 321.821 193.717 321.821ZM220.684 335.069L212.782 313.937C212.818 314.309 212.866 314.837 212.926 315.521C212.998 316.205 213.064 316.997 213.124 317.897C213.196 318.797 213.256 319.751 213.304 320.759C213.352 321.767 213.376 322.775 213.376 323.783V335.069H209.668V310.229H215.086L223.006 331.379C222.946 330.875 222.868 330.137 222.772 329.165C222.688 328.181 222.604 327.041 222.52 325.745C222.448 324.437 222.412 323.039 222.412 321.551V310.229H226.12V335.069H220.684ZM235.916 316.061V329.345C235.916 330.473 236.138 331.277 236.582 331.757C237.038 332.237 237.722 332.477 238.634 332.477C239.498 332.477 240.332 332.219 241.136 331.703C241.94 331.187 242.576 330.557 243.044 329.813V316.061H247.076V335.069H243.602L243.35 332.639C242.642 333.587 241.748 334.313 240.668 334.817C239.588 335.309 238.484 335.555 237.356 335.555C235.52 335.555 234.146 335.051 233.234 334.043C232.334 333.023 231.884 331.625 231.884 329.849V316.061H235.916ZM261.822 308.429V329.885C261.822 330.761 262.086 331.385 262.614 331.757C263.154 332.117 263.85 332.297 264.702 332.297C265.254 332.297 265.776 332.237 266.268 332.117C266.76 331.997 267.24 331.847 267.708 331.667L268.734 334.475C268.17 334.763 267.474 335.015 266.646 335.231C265.83 335.447 264.894 335.555 263.838 335.555C261.93 335.555 260.442 335.021 259.374 333.953C258.318 332.873 257.79 331.397 257.79 329.525V311.399H252.048V308.429H261.822ZM283.408 308.429V329.885C283.408 330.761 283.672 331.385 284.2 331.757C284.74 332.117 285.436 332.297 286.288 332.297C286.84 332.297 287.362 332.237 287.854 332.117C288.346 331.997 288.826 331.847 289.294 331.667L290.32 334.475C289.756 334.763 289.06 335.015 288.232 335.231C287.416 335.447 286.48 335.555 285.424 335.555C283.516 335.555 282.028 335.021 280.96 333.953C279.904 332.873 279.376 331.397 279.376 329.525V311.399H273.634V308.429H283.408ZM311.168 330.407C311.168 331.151 311.282 331.697 311.51 332.045C311.738 332.381 312.104 332.633 312.608 332.801L311.708 335.537C310.772 335.429 309.968 335.171 309.296 334.763C308.624 334.355 308.114 333.737 307.766 332.909C307.07 333.785 306.188 334.445 305.12 334.889C304.052 335.333 302.912 335.555 301.7 335.555C299.78 335.555 298.256 335.015 297.128 333.935C296.012 332.843 295.454 331.415 295.454 329.651C295.454 327.647 296.234 326.105 297.794 325.025C299.354 323.945 301.586 323.405 304.49 323.405H307.208V322.163C307.208 320.939 306.836 320.057 306.092 319.517C305.36 318.977 304.322 318.707 302.978 318.707C302.354 318.707 301.598 318.791 300.71 318.959C299.822 319.115 298.892 319.361 297.92 319.697L296.93 316.853C298.118 316.409 299.282 316.085 300.422 315.881C301.562 315.665 302.618 315.557 303.59 315.557C306.134 315.557 308.03 316.121 309.278 317.249C310.538 318.377 311.168 319.937 311.168 321.929V330.407ZM302.924 332.585C303.74 332.585 304.538 332.369 305.318 331.937C306.098 331.505 306.728 330.899 307.208 330.119V325.925H304.976C303.08 325.925 301.724 326.243 300.908 326.879C300.092 327.503 299.684 328.367 299.684 329.471C299.684 330.479 299.954 331.253 300.494 331.793C301.046 332.321 301.856 332.585 302.924 332.585ZM322.26 318.329C322.92 317.465 323.688 316.787 324.564 316.295C325.452 315.803 326.424 315.557 327.48 315.557C329.148 315.557 330.498 315.971 331.53 316.799C332.574 317.615 333.336 318.773 333.816 320.273C334.308 321.761 334.554 323.513 334.554 325.529C334.554 327.461 334.266 329.183 333.69 330.695C333.114 332.207 332.262 333.395 331.134 334.259C330.018 335.123 328.638 335.555 326.994 335.555C324.87 335.555 323.202 334.769 321.99 333.197L321.774 335.069H318.228V308.429L322.26 307.979V318.329ZM325.986 332.477C327.354 332.477 328.41 331.919 329.154 330.803C329.91 329.687 330.288 327.935 330.288 325.547C330.288 323.927 330.138 322.613 329.838 321.605C329.538 320.585 329.094 319.841 328.506 319.373C327.93 318.905 327.222 318.671 326.382 318.671C325.482 318.671 324.69 318.941 324.006 319.481C323.322 320.021 322.74 320.657 322.26 321.389V330.281C322.704 330.965 323.238 331.505 323.862 331.901C324.498 332.285 325.206 332.477 325.986 332.477ZM348.166 308.429V329.885C348.166 330.761 348.43 331.385 348.958 331.757C349.498 332.117 350.194 332.297 351.046 332.297C351.598 332.297 352.12 332.237 352.612 332.117C353.104 331.997 353.584 331.847 354.052 331.667L355.078 334.475C354.514 334.763 353.818 335.015 352.99 335.231C352.174 335.447 351.238 335.555 350.182 335.555C348.274 335.555 346.786 335.021 345.718 333.953C344.662 332.873 344.134 331.397 344.134 329.525V311.399H338.392V308.429H348.166ZM364.748 326.861C364.832 328.157 365.108 329.219 365.576 330.047C366.044 330.863 366.656 331.463 367.412 331.847C368.18 332.231 369.02 332.423 369.932 332.423C370.868 332.423 371.732 332.279 372.524 331.991C373.316 331.703 374.114 331.295 374.918 330.767L376.664 333.179C375.776 333.899 374.738 334.475 373.55 334.907C372.362 335.339 371.09 335.555 369.734 335.555C367.766 335.555 366.098 335.135 364.73 334.295C363.374 333.455 362.342 332.285 361.634 330.785C360.926 329.285 360.572 327.551 360.572 325.583C360.572 323.675 360.92 321.971 361.616 320.471C362.312 318.959 363.308 317.765 364.604 316.889C365.9 316.001 367.448 315.557 369.248 315.557C370.94 315.557 372.392 315.941 373.604 316.709C374.828 317.477 375.77 318.569 376.43 319.985C377.102 321.389 377.438 323.081 377.438 325.061C377.438 325.385 377.426 325.709 377.402 326.033C377.39 326.345 377.372 326.621 377.348 326.861H364.748ZM369.284 318.545C368.024 318.545 366.98 318.995 366.152 319.895C365.336 320.795 364.862 322.199 364.73 324.107H373.532C373.496 322.319 373.112 320.945 372.38 319.985C371.66 319.025 370.628 318.545 369.284 318.545Z" fill="#D8AF1F"/>
<path d="M361.4 382.069V363.061H364.874L365.18 365.527C365.972 364.555 366.908 363.817 367.988 363.313C369.068 362.809 370.178 362.557 371.318 362.557C373.094 362.557 374.42 363.055 375.296 364.051C376.184 365.035 376.628 366.421 376.628 368.209V382.069H372.596V370.207C372.596 369.103 372.53 368.215 372.398 367.543C372.266 366.871 372.002 366.385 371.606 366.085C371.222 365.785 370.646 365.635 369.878 365.635C369.266 365.635 368.684 365.767 368.132 366.031C367.58 366.295 367.076 366.643 366.62 367.075C366.164 367.495 365.768 367.945 365.432 368.425V382.069H361.4ZM387.018 363.061V376.345C387.018 377.473 387.24 378.277 387.684 378.757C388.14 379.237 388.824 379.477 389.736 379.477C390.6 379.477 391.434 379.219 392.238 378.703C393.042 378.187 393.678 377.557 394.146 376.813V363.061H398.178V382.069H394.704L394.452 379.639C393.744 380.587 392.85 381.313 391.77 381.817C390.69 382.309 389.586 382.555 388.458 382.555C386.622 382.555 385.248 382.051 384.336 381.043C383.436 380.023 382.986 378.625 382.986 376.849V363.061H387.018ZM417.676 362.557C418.396 362.557 419.044 362.713 419.62 363.025C420.196 363.337 420.646 363.883 420.97 364.663C421.306 365.443 421.474 366.535 421.474 367.939V382.069H417.892V368.497C417.892 367.501 417.82 366.787 417.676 366.355C417.544 365.923 417.19 365.707 416.614 365.707C416.158 365.707 415.696 365.851 415.228 366.139C414.76 366.415 414.286 366.895 413.806 367.579V382.069H410.548V368.497C410.548 367.501 410.476 366.787 410.332 366.355C410.2 365.923 409.846 365.707 409.27 365.707C408.802 365.707 408.334 365.851 407.866 366.139C407.41 366.415 406.942 366.895 406.462 367.579V382.069H402.862V363.061H405.904L406.174 365.113C406.714 364.357 407.302 363.745 407.938 363.277C408.574 362.797 409.342 362.557 410.242 362.557C410.962 362.557 411.616 362.737 412.204 363.097C412.792 363.457 413.224 364.087 413.5 364.987C414.028 364.267 414.628 363.685 415.3 363.241C415.972 362.785 416.764 362.557 417.676 362.557ZM436.544 382.069L428.642 360.937C428.678 361.309 428.726 361.837 428.786 362.521C428.858 363.205 428.924 363.997 428.984 364.897C429.056 365.797 429.116 366.751 429.164 367.759C429.212 368.767 429.236 369.775 429.236 370.783V382.069H425.528V357.229H430.946L438.866 378.379C438.806 377.875 438.728 377.137 438.632 376.165C438.548 375.181 438.464 374.041 438.38 372.745C438.308 371.437 438.272 370.039 438.272 368.551V357.229H441.98V382.069H436.544ZM460.47 365.059C460.47 363.919 460.248 363.007 459.804 362.323C459.372 361.639 458.754 361.141 457.95 360.829C457.158 360.517 456.222 360.361 455.142 360.361H452.154V370.027H455.196C456.24 370.027 457.158 369.871 457.95 369.559C458.742 369.247 459.36 368.731 459.804 368.011C460.248 367.291 460.47 366.307 460.47 365.059ZM464.862 365.023C464.862 366.955 464.448 368.521 463.62 369.721C462.804 370.921 461.664 371.803 460.2 372.367C458.736 372.931 457.056 373.213 455.16 373.213H452.154V382.069H447.978V357.229H454.872C457.992 357.229 460.434 357.871 462.198 359.155C463.974 360.427 464.862 362.383 464.862 365.023ZM474.37 360.397V367.867H483.37V371.035H474.37V378.901H485.332V382.069H470.194V357.229H485.134L484.666 360.397H474.37Z" fill="#27CD7D"/>
<path d="M232.064 429.069V426.189H234.854V412.923H232.064V410.061H237.932L238.67 414.471C239.378 412.875 240.254 411.663 241.298 410.835C242.354 409.995 243.71 409.575 245.366 409.575C245.93 409.575 246.434 409.623 246.878 409.719C247.334 409.803 247.784 409.917 248.228 410.061L247.022 413.517C246.638 413.409 246.278 413.331 245.942 413.283C245.606 413.223 245.234 413.193 244.826 413.193C243.446 413.193 242.252 413.709 241.244 414.741C240.248 415.773 239.462 417.237 238.886 419.133V426.189H242.72V429.069H232.064ZM244.664 417.063V412.383L245.168 410.061H248.228L247.544 417.063H244.664ZM256.818 420.861C256.902 422.157 257.178 423.219 257.646 424.047C258.114 424.863 258.726 425.463 259.482 425.847C260.25 426.231 261.09 426.423 262.002 426.423C262.938 426.423 263.802 426.279 264.594 425.991C265.386 425.703 266.184 425.295 266.988 424.767L268.734 427.179C267.846 427.899 266.808 428.475 265.62 428.907C264.432 429.339 263.16 429.555 261.804 429.555C259.836 429.555 258.168 429.135 256.8 428.295C255.444 427.455 254.412 426.285 253.704 424.785C252.996 423.285 252.642 421.551 252.642 419.583C252.642 417.675 252.99 415.971 253.686 414.471C254.382 412.959 255.378 411.765 256.674 410.889C257.97 410.001 259.518 409.557 261.318 409.557C263.01 409.557 264.462 409.941 265.674 410.709C266.898 411.477 267.84 412.569 268.5 413.985C269.172 415.389 269.508 417.081 269.508 419.061C269.508 419.385 269.496 419.709 269.472 420.033C269.46 420.345 269.442 420.621 269.418 420.861H256.818ZM261.354 412.545C260.094 412.545 259.05 412.995 258.222 413.895C257.406 414.795 256.932 416.199 256.8 418.107H265.602C265.566 416.319 265.182 414.945 264.45 413.985C263.73 413.025 262.698 412.545 261.354 412.545ZM290.932 428.061C290.236 428.505 289.402 428.865 288.43 429.141C287.458 429.417 286.444 429.555 285.388 429.555C283.18 429.555 281.5 428.985 280.348 427.845C279.208 426.693 278.638 425.181 278.638 423.309V412.995H274.408V410.061H278.638V405.813L282.67 405.327V410.061H289.078L288.628 412.995H282.67V423.273C282.67 424.293 282.922 425.055 283.426 425.559C283.942 426.051 284.782 426.297 285.946 426.297C286.642 426.297 287.284 426.213 287.872 426.045C288.46 425.877 288.994 425.661 289.474 425.397L290.932 428.061ZM300.674 410.061V423.345C300.674 424.473 300.896 425.277 301.34 425.757C301.796 426.237 302.48 426.477 303.392 426.477C304.256 426.477 305.09 426.219 305.894 425.703C306.698 425.187 307.334 424.557 307.802 423.813V410.061H311.834V429.069H308.36L308.108 426.639C307.4 427.587 306.506 428.313 305.426 428.817C304.346 429.309 303.242 429.555 302.114 429.555C300.278 429.555 298.904 429.051 297.992 428.043C297.092 427.023 296.642 425.625 296.642 423.849V410.061H300.674ZM318.408 429.069V426.189H321.198V412.923H318.408V410.061H324.276L325.014 414.471C325.722 412.875 326.598 411.663 327.642 410.835C328.698 409.995 330.054 409.575 331.71 409.575C332.274 409.575 332.778 409.623 333.222 409.719C333.678 409.803 334.128 409.917 334.572 410.061L333.366 413.517C332.982 413.409 332.622 413.331 332.286 413.283C331.95 413.223 331.578 413.193 331.17 413.193C329.79 413.193 328.596 413.709 327.588 414.741C326.592 415.773 325.806 417.237 325.23 419.133V426.189H329.064V429.069H318.408ZM331.008 417.063V412.383L331.512 410.061H334.572L333.888 417.063H331.008ZM339.814 429.069V410.061H343.288L343.594 412.527C344.386 411.555 345.322 410.817 346.402 410.313C347.482 409.809 348.592 409.557 349.732 409.557C351.508 409.557 352.834 410.055 353.71 411.051C354.598 412.035 355.042 413.421 355.042 415.209V429.069H351.01V417.207C351.01 416.103 350.944 415.215 350.812 414.543C350.68 413.871 350.416 413.385 350.02 413.085C349.636 412.785 349.06 412.635 348.292 412.635C347.68 412.635 347.098 412.767 346.546 413.031C345.994 413.295 345.49 413.643 345.034 414.075C344.578 414.495 344.182 414.945 343.846 415.425V429.069H339.814Z" fill="#9F45D7"/>
<path d="M383.4 429.069V410.115H385.974L386.208 412.743C386.976 411.771 387.936 411.027 389.088 410.511C390.252 409.983 391.38 409.719 392.472 409.719C394.332 409.719 395.682 410.211 396.522 411.195C397.374 412.179 397.8 413.547 397.8 415.299V429.069H394.776V417.531C394.776 416.235 394.704 415.191 394.56 414.399C394.416 413.595 394.116 413.013 393.66 412.653C393.204 412.281 392.496 412.095 391.536 412.095C390.792 412.095 390.09 412.257 389.43 412.581C388.782 412.905 388.2 413.313 387.684 413.805C387.18 414.285 386.76 414.771 386.424 415.263V429.069H383.4ZM408.01 410.115V423.543C408.01 424.791 408.268 425.691 408.784 426.243C409.3 426.795 410.104 427.071 411.196 427.071C412.24 427.071 413.224 426.777 414.148 426.189C415.084 425.589 415.81 424.881 416.326 424.065V410.115H419.35V429.069H416.776L416.524 426.513C415.78 427.473 414.862 428.211 413.77 428.727C412.678 429.231 411.574 429.483 410.458 429.483C408.622 429.483 407.248 428.997 406.336 428.025C405.436 427.041 404.986 425.667 404.986 423.903V410.115H408.01ZM433.952 402.483V424.389C433.952 425.325 434.24 425.991 434.816 426.387C435.404 426.771 436.16 426.963 437.084 426.963C437.66 426.963 438.206 426.903 438.722 426.783C439.238 426.663 439.754 426.501 440.27 426.297L441.08 428.511C440.564 428.763 439.922 428.985 439.154 429.177C438.398 429.381 437.54 429.483 436.58 429.483C434.9 429.483 433.538 429.021 432.494 428.097C431.45 427.161 430.928 425.871 430.928 424.227V404.877H425.114V402.483H433.952ZM455.538 402.483V424.389C455.538 425.325 455.826 425.991 456.402 426.387C456.99 426.771 457.746 426.963 458.67 426.963C459.246 426.963 459.792 426.903 460.308 426.783C460.824 426.663 461.34 426.501 461.856 426.297L462.666 428.511C462.15 428.763 461.508 428.985 460.74 429.177C459.984 429.381 459.126 429.483 458.166 429.483C456.486 429.483 455.124 429.021 454.08 428.097C453.036 427.161 452.514 425.871 452.514 424.227V404.877H446.7V402.483H455.538Z" fill="#FFFAFA"/>
</svg>
